<?xml version="1.0" encoding="UTF-8"?>
<svg id="Layer_2" xmlns="http://www.w3.org/2000/svg" version="1.1" viewBox="0 0 81.7 156.2">
  <!-- Generator: Adobe Illustrator 30.1.0, SVG Export Plug-In . SVG Version: 2.1.1 Build 136)  -->
  <defs>
    <style>
      .st0 {
        fill: none;
        stroke: #f0f0f0;
        stroke-miterlimit: 10;
        stroke-width: .6px;
      }
    </style>
  </defs>
  <g id="guide">
    <g>
      <rect class="st0" x="18.2" y="34.5" width="45.4" height="87.3" rx="9.8" ry="9.8"/>
      <line class="st0" x1="32.3" y1="41.8" x2="49.4" y2="41.8"/>
      <line class="st0" x1="37.8" y1="115.2" x2="43.9" y2="115.2"/>
      <g>
        <polyline class="st0" points="48.9 64.2 54.7 64.2 54.7 70"/>
        <g>
          <polyline class="st0" points="26.9 70 26.9 64.2 32.7 64.2"/>
          <polyline class="st0" points="32.8 92 26.9 92 26.9 86.3"/>
          <polyline class="st0" points="54.8 86.1 54.8 92 49 92"/>
        </g>
      </g>
      <g>
        <rect class="st0" x="33.3" y="70.5" width="5.8" height="5.8"/>
        <rect class="st0" x="42.6" y="70.5" width="5.8" height="5.8"/>
        <rect class="st0" x="33.3" y="79.9" width="5.8" height="5.8"/>
      </g>
      <polyline class="st0" points="42.6 79.9 48.4 79.9 48.4 82.7"/>
      <polyline class="st0" points="45.5 85.7 42.6 85.7 42.6 82.8"/>
    </g>
  </g>
</svg>