<?xml version="1.0" encoding="UTF-8"?>
<svg id="Layer_2" xmlns="http://www.w3.org/2000/svg" version="1.1" viewBox="0 0 204 156.5">
  <!-- Generator: Adobe Illustrator 30.1.0, SVG Export Plug-In . SVG Version: 2.1.1 Build 136)  -->
  <defs>
    <style>
      .st0, .st1 {
        fill: none;
      }

      .st0, .st1, .st2 {
        stroke: #f0f0f0;
        stroke-miterlimit: 10;
      }

      .st0, .st2 {
        stroke-width: 1.4px;
      }

      .st2, .st3 {
        fill: #867db0;
      }

      .st4 {
        fill: #f0f0f0;
      }
    </style>
  </defs>
  <g id="guide">
    <g>
      <path class="st4" d="M201.2,78.3v.7h2.8v-1.4h-2.8v.7h0ZM195.6,78.3v.7h2.8v-1.4h-2.8v.7h0ZM190,78.3v.7h2.8v-1.4h-2.8v.7h0ZM184.3,78.3v.7h2.8v-1.4h-2.8v.7h0ZM178.7,78.3v.7h2.8v-1.4h-2.8v.7h0ZM173.1,78.3v.7h2.8v-1.4h-2.8v.7h0Z"/>
      <path class="st4" d="M183.8,63.6c-3,0-5.5,2.5-5.5,5.5v.4h0v2.4l-2.6-2.6-1,1,1.7,1.8,2.6,2.7,2.7-2.8h0l1.6-1.7-1-1-2.6,2.6v-2.4h0v-.4c0-2.3,1.8-4.1,4-4.1s4,1.8,4,4.1v18.5c0,2.3-1.8,4.1-4,4.1s-4-1.8-4-4.1h0v-5.7h-1.4v5.7h0c0,3.1,2.4,5.5,5.5,5.5s5.5-2.5,5.5-5.5v-18.5c0-3.1-2.4-5.5-5.5-5.5h0Z"/>
      <rect class="st2" x="156.8" y="60.6" width="12.9" height="35.5" rx="2.3" ry="2.3"/>
      <circle class="st3" cx="54.2" cy="71.8" r="4.4"/>
      <rect class="st1" x="60.5" y="41.4" width="35.5" height="17.8"/>
      <g>
        <circle class="st1" cx="54.2" cy="71.8" r="3.9"/>
        <circle class="st1" cx="102.3" cy="71.8" r="3.9"/>
        <circle class="st1" cx="86.3" cy="71.8" r="3.9"/>
        <circle class="st1" cx="70.2" cy="71.8" r="3.9"/>
      </g>
      <circle class="st1" cx="78.3" cy="104.1" r="12.9"/>
      <circle class="st0" cx="78.3" cy="78.3" r="77.6"/>
      <rect class="st4" x="77.6" y="6.5" width="1.4" height="9.9"/>
      <rect class="st4" x="60.3" y="8.8" width="1.4" height="9.9" transform="translate(-1.5 16.3) rotate(-15)"/>
      <rect class="st4" x="44.2" y="15.5" width="1.4" height="9.9" transform="translate(-4.2 25.2) rotate(-30)"/>
      <rect class="st4" x="30.3" y="26.1" width="1.4" height="9.9" transform="translate(-12.9 31) rotate(-45)"/>
      <rect class="st4" x="19.7" y="39.9" width="1.4" height="9.9" transform="translate(-28.7 40.1) rotate(-60)"/>
      <rect class="st4" x="13.1" y="56" width="1.4" height="9.9" transform="translate(-48.7 58.5) rotate(-75)"/>
      <rect class="st4" x="6.5" y="77.6" width="9.9" height="1.4"/>
      <rect class="st4" x="8.8" y="94.8" width="9.9" height="1.4" transform="translate(-24.3 6.8) rotate(-15)"/>
      <rect class="st4" x="15.5" y="111" width="9.9" height="1.4" transform="translate(-53.1 25.2) rotate(-30)"/>
      <rect class="st4" x="26.1" y="124.8" width="9.9" height="1.4" transform="translate(-79.6 58.7) rotate(-45)"/>
      <rect class="st4" x="39.9" y="135.4" width="9.9" height="1.4" transform="translate(-95.4 106.9) rotate(-60)"/>
      <rect class="st4" x="56" y="142.1" width="9.9" height="1.4" transform="translate(-92.7 164.7) rotate(-75)"/>
      <rect class="st4" x="77.6" y="140.1" width="1.4" height="9.9"/>
      <rect class="st4" x="94.8" y="137.8" width="1.4" height="9.9" transform="translate(-33.7 29.6) rotate(-15)"/>
      <rect class="st4" x="110.9" y="131.1" width="1.4" height="9.9" transform="translate(-53.1 74.1) rotate(-30)"/>
      <rect class="st4" x="124.8" y="120.5" width="1.4" height="9.9" transform="translate(-52 125.5) rotate(-45)"/>
      <rect class="st4" x="135.4" y="106.7" width="1.4" height="9.9" transform="translate(-28.6 173.7) rotate(-60)"/>
      <rect class="st4" x="142.1" y="90.6" width="1.4" height="9.9" transform="translate(13.5 208.7) rotate(-75)"/>
      <rect class="st4" x="140.1" y="77.6" width="9.9" height="1.4"/>
      <rect class="st4" x="137.8" y="60.3" width="9.9" height="1.4" transform="translate(-10.9 39) rotate(-15)"/>
      <rect class="st4" x="131.1" y="44.2" width="9.9" height="1.4" transform="translate(-4.2 74.1) rotate(-30)"/>
      <rect class="st4" x="120.5" y="30.3" width="9.9" height="1.4" transform="translate(14.8 97.8) rotate(-45)"/>
      <rect class="st4" x="106.7" y="19.7" width="9.9" height="1.4" transform="translate(38.1 106.9) rotate(-60)"/>
      <rect class="st4" x="90.6" y="13.1" width="9.9" height="1.4" transform="translate(57.5 102.5) rotate(-75)"/>
      <rect class="st4" x="69.9" y="17" width="1.3" height="6.2" transform="translate(-2 9.4) rotate(-7.5)"/>
      <rect class="st4" x="55.1" y="20.9" width="1.3" height="6.2" transform="translate(-5 23.2) rotate(-22.5)"/>
      <rect class="st4" x="41.8" y="28.6" width="1.3" height="6.2" transform="translate(-10.5 32.4) rotate(-37.5)"/>
      <rect class="st4" x="31" y="39.5" width="1.3" height="6.2" transform="translate(-21.4 41.8) rotate(-52.5)"/>
      <rect class="st4" x="23.3" y="52.7" width="1.3" height="6.2" transform="translate(-36.8 56.6) rotate(-67.5)"/>
      <rect class="st4" x="19.4" y="67.6" width="1.3" height="6.2" transform="translate(-52.7 81.3) rotate(-82.5)"/>
      <rect class="st4" x="16.9" y="85.4" width="6.2" height="1.3" transform="translate(-11.1 3.3) rotate(-7.5)"/>
      <rect class="st4" x="20.9" y="100.2" width="6.2" height="1.3" transform="translate(-36.8 16.9) rotate(-22.5)"/>
      <rect class="st4" x="28.5" y="113.5" width="6.2" height="1.3" transform="translate(-62.9 42.8) rotate(-37.5)"/>
      <rect class="st4" x="39.4" y="124.3" width="6.2" height="1.3" transform="translate(-82.5 82.6) rotate(-52.5)"/>
      <rect class="st4" x="52.7" y="132" width="6.2" height="1.3" transform="translate(-88.1 133.4) rotate(-67.5)"/>
      <rect class="st4" x="67.5" y="135.9" width="6.2" height="1.3" transform="translate(-74 188.8) rotate(-82.5)"/>
      <rect class="st4" x="85.3" y="133.5" width="1.3" height="6.2" transform="translate(-17.1 12.4) rotate(-7.5)"/>
      <rect class="st4" x="100.1" y="129.5" width="1.3" height="6.2" transform="translate(-43.1 48.7) rotate(-22.5)"/>
      <rect class="st4" x="113.4" y="121.8" width="1.3" height="6.2" transform="translate(-52.5 95.2) rotate(-37.5)"/>
      <rect class="st4" x="124.2" y="111" width="1.3" height="6.2" transform="translate(-41.7 143.7) rotate(-52.5)"/>
      <rect class="st4" x="131.9" y="97.7" width="1.3" height="6.2" transform="translate(-11.3 184.7) rotate(-67.5)"/>
      <rect class="st4" x="135.9" y="82.9" width="1.3" height="6.2" transform="translate(33.4 210.2) rotate(-82.5)"/>
      <rect class="st4" x="133.4" y="70" width="6.2" height="1.3" transform="translate(-8.1 18.4) rotate(-7.5)"/>
      <rect class="st4" x="129.4" y="55.2" width="6.2" height="1.3" transform="translate(-11.3 55) rotate(-22.5)"/>
      <rect class="st4" x="121.8" y="41.9" width="6.2" height="1.3" transform="translate(-.1 84.8) rotate(-37.5)"/>
      <rect class="st4" x="110.9" y="31.1" width="6.2" height="1.3" transform="translate(19.5 102.9) rotate(-52.5)"/>
      <rect class="st4" x="97.6" y="23.4" width="6.2" height="1.3" transform="translate(40 107.9) rotate(-67.5)"/>
      <rect class="st4" x="82.8" y="19.4" width="6.2" height="1.3" transform="translate(54.8 102.7) rotate(-82.5)"/>
    </g>
  </g>
</svg>