<?xml version="1.0" encoding="UTF-8"?>
<svg id="Layer_2" data-name="Layer 2" xmlns="http://www.w3.org/2000/svg" viewBox="0 0 566.93 434.51">
  <defs>
    <style>
      .cls-1 {
        fill: #f0f0f0;
      }
    </style>
  </defs>
  <g id="Layer_5" data-name="Layer 5">
    <g>
      <path class="cls-1" d="M476.24,41.44c-.87-8.59-2.92-15.93-6.16-22.02-3.11-6.1-7.65-10.83-13.63-14.19-5.97-3.48-14-5.23-24.08-5.23s-18.1,1.74-24.08,5.23c-5.97,3.36-10.58,8.09-13.81,14.19-3.11,6.1-5.16,13.44-6.16,22.02-.87,8.46-1.31,17.73-1.31,27.81s.44,19.54,1.31,28c1,8.46,3.05,15.74,6.16,21.84,3.23,6.1,7.84,10.76,13.81,14,5.97,3.24,16.37,4.85,26.45,4.85s15.73-1.62,21.7-4.85c5.97-3.24,10.51-7.9,13.63-14,3.23-6.1,5.29-13.38,6.16-21.84.99-8.46,1.49-17.79,1.49-28s-.5-19.35-1.49-27.81ZM450.11,92.2c-.37,6.22-1.24,11.32-2.61,15.3-1.24,3.86-3.11,6.72-5.6,8.59-2.36,1.74-5.54,2.61-9.52,2.61s-7.22-.87-9.71-2.61c-2.36-1.87-4.23-4.73-5.6-8.59-1.24-3.98-2.12-9.08-2.61-15.3-.37-6.35-.56-14-.56-22.96s.19-16.55.56-22.77c.5-6.22,1.37-11.32,2.61-15.3,1.37-3.98,3.24-6.84,5.6-8.59,2.49-1.87,5.72-2.8,9.71-2.8s7.15.93,9.52,2.8c2.49,1.74,4.36,4.6,5.6,8.59,1.37,3.98,2.24,9.08,2.61,15.3.5,6.22.75,13.81.75,22.77s-.25,16.61-.75,22.96ZM377.19,127.11c-.5-3.73-.87-9.15-1.12-16.24-.12-3.61-.25-6.84-.37-9.71-.12-2.99-.31-5.72-.56-8.21-.75-7.47-2.68-12.88-5.79-16.24-3.11-3.36-8.03-5.54-14.74-6.53v-.37c7.59-1.62,13.19-5.23,16.8-10.83,3.61-5.72,5.41-13.07,5.41-22.02,0-11.57-3.11-20.16-9.33-25.76-6.22-5.72-14.93-8.59-26.13-8.59h-49.65v133.26h26.88v-56.37h14.37c5.6,0,9.58,1.49,11.95,4.48s3.67,7.09,3.92,12.32l.75,25.57c.12,2.61.37,5.16.75,7.65.37,2.36,1.24,4.48,2.61,6.35h29.12v-1.12c-2.49-1.37-4.11-3.92-4.85-7.65ZM344.71,56.37c-3.48,2.99-8.46,4.48-14.93,4.48h-11.2V22.4h12.69c12.44,0,18.66,6.16,18.66,18.48,0,7.22-1.74,12.38-5.23,15.49ZM281.92,2.61v22.02h-47.59v31.36h44.79v22.02h-44.79v35.84h49.46v22.02h-76.34V2.61h74.47ZM118.33,116.28l49.09-91.64h-45.73V2.61h76.71v20.34l-49.83,90.9h50.58v22.02h-80.82v-19.6Z"/>
      <path class="cls-1" d="M376.54,276.42c-.5-3.73-.87-9.15-1.12-16.24-.13-3.61-.25-6.84-.37-9.71-.13-2.99-.31-5.72-.56-8.21-.75-7.47-2.67-12.88-5.79-16.24-3.11-3.36-8.03-5.54-14.74-6.53v-.37c7.59-1.62,13.19-5.23,16.8-10.83,3.61-5.72,5.41-13.07,5.41-22.02,0-11.57-3.11-20.16-9.33-25.76-6.22-5.72-14.93-8.59-26.13-8.59h-49.65v133.26h26.88v-56.37h14.37c5.6,0,9.58,1.49,11.95,4.48s3.67,7.09,3.92,12.32l.75,25.57c.13,2.61.37,5.16.75,7.65.37,2.36,1.25,4.48,2.61,6.35h29.12v-1.12c-2.49-1.37-4.11-3.92-4.85-7.65ZM344.06,205.68c-3.49,2.99-8.46,4.48-14.93,4.48h-11.2v-38.45h12.69c12.44,0,18.66,6.16,18.66,18.48,0,7.22-1.74,12.38-5.23,15.49ZM221.42,151.93v92.95c0,3.36.19,6.47.56,9.33.5,2.74,1.31,5.16,2.43,7.28,1.24,1.99,2.86,3.61,4.85,4.85,2.12,1.12,4.73,1.68,7.84,1.68s5.85-.56,7.84-1.68c1.99-1.24,3.55-2.86,4.67-4.85,1.24-2.12,2.05-4.54,2.43-7.28.5-2.86.75-5.97.75-9.33v-92.95h26.88v92.95c0,8.46-1.18,15.49-3.55,21.09-2.36,5.47-5.54,9.83-9.52,13.07-3.98,3.24-8.52,5.41-13.63,6.53-5.1,1.12-10.39,1.68-15.86,1.68s-10.76-.5-15.86-1.49c-5.1-1-9.64-2.99-13.63-5.97-3.98-3.11-7.15-7.47-9.52-13.07-2.36-5.6-3.55-12.88-3.55-21.84v-92.95h26.88ZM184.53,190.75c-.87-8.59-2.92-15.93-6.16-22.02-3.11-6.1-7.65-10.83-13.62-14.19-5.97-3.48-14-5.23-24.08-5.23s-18.1,1.74-24.08,5.23c-5.97,3.36-10.58,8.09-13.81,14.19-3.11,6.1-5.16,13.44-6.16,22.02-.87,8.46-1.31,17.73-1.31,27.81s.44,19.54,1.31,28c1,8.46,3.05,15.74,6.16,21.84,3.24,6.1,7.84,10.76,13.81,14,5.97,3.24,14,4.85,24.08,4.85s18.1-1.62,24.08-4.85c5.97-3.23,10.51-7.9,13.62-14,3.24-6.1,5.29-13.38,6.16-21.84,1-8.46,1.49-17.79,1.49-28s-.5-19.35-1.49-27.81ZM158.4,241.52c-.37,6.22-1.24,11.32-2.61,15.3-1.24,3.86-3.11,6.72-5.6,8.59-2.36,1.74-5.54,2.61-9.52,2.61s-7.22-.87-9.71-2.61c-2.36-1.87-4.23-4.73-5.6-8.59-1.24-3.98-2.12-9.08-2.61-15.3-.37-6.35-.56-14-.56-22.96s.19-16.55.56-22.77c.5-6.22,1.37-11.32,2.61-15.3,1.37-3.98,3.24-6.84,5.6-8.59,2.49-1.87,5.72-2.8,9.71-2.8s7.15.93,9.52,2.8c2.49,1.74,4.36,4.6,5.6,8.59,1.37,3.98,2.24,9.08,2.61,15.3.5,6.22.75,13.81.75,22.77s-.25,16.61-.75,22.96ZM0,151.93h26.88v50.95h31.36v-50.95h26.88v133.26h-26.88v-59.17h-31.36v59.17H0v-133.26Z"/>
      <path class="cls-1" d="M501.23,301.25l17.54,51.51h.37l18.66-51.51h29.12l-34.53,80.82v52.45h-26.88v-52.45l-34.53-80.82h30.24ZM451.03,301.25l35.28,133.26h-28l-6.16-28.18h-35.46l-6.16,28.18h-28l35.28-133.26h33.22ZM447.48,384.3l-12.88-59.91h-.37l-12.88,59.91h26.13ZM291.59,301.25h44.05c9.33,0,16.86,1.56,22.58,4.67,5.72,2.99,10.14,7.34,13.25,13.07,3.24,5.6,5.41,12.38,6.53,20.34,1.12,7.96,1.68,16.86,1.68,26.69,0,11.7-.75,21.9-2.24,30.61-1.37,8.59-3.79,15.68-7.28,21.28-3.48,5.6-8.15,9.77-14,12.51-5.85,2.74-13.25,4.11-22.21,4.11h-42.37v-133.26ZM318.47,414.73h11.95c4.73,0,8.52-.81,11.39-2.43,2.86-1.62,5.1-4.29,6.72-8.03,1.74-3.73,2.86-8.65,3.36-14.74.62-6.1.93-13.69.93-22.77,0-7.59-.25-14.25-.75-19.97-.5-5.72-1.55-10.45-3.17-14.19-1.49-3.86-3.79-6.72-6.91-8.59-2.99-1.99-7.03-2.99-12.13-2.99h-11.39v93.7Z"/>
    </g>
  </g>
</svg>