<?xml version="1.0" encoding="UTF-8"?>
<svg id="Layer_2" xmlns="http://www.w3.org/2000/svg" version="1.1" viewBox="0 0 203.1 35.3">
  <!-- Generator: Adobe Illustrator 30.1.0, SVG Export Plug-In . SVG Version: 2.1.1 Build 136)  -->
  <defs>
    <style>
      .st0, .st1 {
        fill: #f0f0f0;
      }

      .st1 {
        stroke: #f0f0f0;
        stroke-miterlimit: 10;
        stroke-width: .7px;
      }
    </style>
  </defs>
  <g id="Livello_1">
    <g>
      <g>
        <path class="st1" d="M50.4,31.1c-2,0-3.7-.4-5-1.1-1.3-.7-2.3-1.7-2.9-3s-.9-2.6-.9-4.1h.8c0,1.3.2,2.6.8,3.7.5,1.1,1.4,2,2.5,2.7s2.7,1,4.6,1,3.2-.3,4.3-.9c1.1-.6,1.9-1.3,2.4-2.3s.8-2,.8-3.2-.3-2.6-1-3.4c-.7-.9-1.5-1.5-2.5-2-1-.5-2.1-.9-3.3-1.3-1.2-.4-2.3-.8-3.3-1.2-1.4-.6-2.6-1.3-3.5-2.2s-1.3-2.1-1.3-3.6.3-2.1.8-3,1.3-1.6,2.4-2.2c1.1-.6,2.4-.8,4-.8s2.6.2,3.7.7,2,1.2,2.7,2.2c.7,1,1,2.3,1,3.9h-.8c0-1.5-.3-2.7-.9-3.6-.6-.9-1.4-1.5-2.4-1.9-1-.4-2.1-.6-3.3-.6s-2.8.2-3.8.8c-1,.5-1.6,1.2-2,1.9-.4.8-.6,1.6-.6,2.5s.3,2.2,1,3c.7.7,1.5,1.3,2.5,1.8,1,.4,2.2.9,3.3,1.2,1.2.4,2.3.8,3.5,1.3.9.4,1.7.9,2.3,1.4.7.5,1.3,1.2,1.7,2,.4.8.6,1.8.6,3s-.3,2.5-.9,3.6c-.6,1.1-1.5,1.9-2.7,2.5-1.2.6-2.8.9-4.6.9h0Z"/>
        <path class="st1" d="M69.2,30.6v-11.5l-8.1-14.4h.8l7.7,13.5,7.3-13.5h.9l-7.9,14.4v11.5s-.7,0-.7,0Z"/>
        <path class="st1" d="M82.8,30.6V4.7h1l15.9,24.7V4.7h.7v25.9h-.9l-16-24.9v24.9s-.7,0-.7,0Z"/>
        <path class="st1" d="M118.1,31.1c-2.4,0-4.5-.6-6.3-1.7s-3.2-2.7-4.2-4.7c-1-2-1.5-4.4-1.5-7s.5-5,1.5-7,2.4-3.6,4.2-4.7,3.9-1.7,6.3-1.7,4.9.6,6.6,1.8c1.7,1.2,2.8,3,3.3,5.2h-.8c-.5-1.9-1.5-3.4-2.9-4.6s-3.5-1.7-6.2-1.7-4.1.5-5.8,1.5-3,2.4-3.9,4.3c-.9,1.9-1.4,4.2-1.4,6.8s.5,4.9,1.4,6.8,2.2,3.3,3.9,4.4,3.6,1.5,5.8,1.5,4.6-.6,6.1-1.8c1.5-1.2,2.5-2.7,3-4.6h.8c-.6,2.3-1.7,4-3.3,5.3-1.7,1.2-3.8,1.9-6.6,1.9h0Z"/>
        <path class="st1" d="M133.8,30.6V4.7h.7v25.9s-.7,0-.7,0ZM134.1,17.7v-.7h17.2v.7h-17.2ZM150.7,30.6V4.7h.7v25.9s-.7,0-.7,0Z"/>
        <path class="st1" d="M158.3,30.6V4.7h6.5c2,0,3.6.3,4.9.9,1.2.6,2.1,1.5,2.7,2.6.6,1.1.8,2.3.8,3.7s-.3,2.8-.8,3.9c-.6,1.1-1.4,1.9-2.7,2.5-1.2.6-2.8.9-4.9.9h-5.7v11.4h-.7ZM159,18.5h5.8c2.4,0,4.2-.5,5.6-1.6,1.3-1.1,2-2.7,2-5.1s-.7-3.8-2-4.9c-1.3-1.1-3.2-1.7-5.6-1.7h-5.8v13.1h0ZM172.6,30.6l-6.2-11.9h.8l6.2,11.9h-.8Z"/>
        <path class="st1" d="M190.5,31.1c-2.4,0-4.6-.6-6.4-1.7s-3.3-2.7-4.3-4.7c-1-2-1.5-4.4-1.5-7s.5-5,1.5-7c1-2,2.4-3.6,4.3-4.7,1.8-1.1,4-1.7,6.4-1.7s4.7.6,6.5,1.7c1.9,1.1,3.3,2.7,4.3,4.7s1.5,4.3,1.5,7-.5,5-1.5,7-2.4,3.6-4.3,4.7-4,1.7-6.5,1.7ZM190.5,30.3c2.1,0,4.1-.5,5.8-1.5s3.1-2.4,4.1-4.3,1.5-4.2,1.5-6.8-.5-5-1.5-6.9-2.4-3.3-4.1-4.3-3.7-1.5-5.8-1.5-4.1.5-5.8,1.5-3.1,2.4-4.1,4.3-1.5,4.2-1.5,6.9.5,4.9,1.5,6.8,2.4,3.3,4.1,4.3,3.7,1.5,5.9,1.5Z"/>
      </g>
      <g>
        <polygon class="st0" points="18.4 0 18.4 0 17.9 0 17 0 17 0 17 3.9 18.4 3.9 18.4 0"/>
        <polygon class="st0" points="13.8 .4 13.8 .4 13.3 .6 12.4 .8 12.4 .8 13.4 4.6 14.8 4.2 13.8 .4"/>
        <polygon class="st0" points="9.5 2 9.5 2 9 2.3 8.2 2.7 8.2 2.8 10.2 6.1 11.4 5.4 9.5 2"/>
        <polygon class="st0" points="5.7 4.7 5.7 4.7 5.3 5 4.7 5.7 4.7 5.7 7.4 8.4 8.5 7.4 5.7 4.7"/>
        <polygon class="st0" points="2.8 8.2 2.7 8.2 2.5 8.6 2 9.4 2 9.5 5.4 11.4 6.1 10.2 2.8 8.2"/>
        <polygon class="st0" points=".8 12.4 .8 12.4 .7 12.9 .4 13.8 .5 13.8 4.2 14.8 4.6 13.4 .8 12.4"/>
        <polygon class="st0" points="0 16.9 0 16.9 0 17.5 0 18.4 0 18.4 3.9 18.4 3.9 16.9 0 16.9"/>
        <polygon class="st0" points=".4 21.5 .4 21.5 .6 22 .8 22.9 .8 22.9 4.6 21.9 4.2 20.5 .4 21.5"/>
        <polygon class="st0" points="2 25.9 2 25.9 2.3 26.3 2.7 27.1 2.8 27.1 6.1 25.1 5.4 23.9 2 25.9"/>
        <polygon class="st0" points="4.7 29.6 4.7 29.6 5 30 5.7 30.6 5.7 30.6 8.4 27.9 7.4 26.9 4.7 29.6"/>
        <polygon class="st0" points="8.2 32.6 8.2 32.6 8.6 32.8 9.4 33.3 9.5 33.3 11.4 29.9 10.2 29.2 8.2 32.6"/>
        <polygon class="st0" points="12.4 34.5 12.4 34.5 12.9 34.7 13.8 34.9 13.8 34.9 14.8 31.1 13.4 30.8 12.4 34.5"/>
        <polygon class="st0" points="16.9 35.3 16.9 35.3 17.5 35.3 18.4 35.3 18.4 35.3 18.4 31.4 16.9 31.4 16.9 35.3"/>
        <polygon class="st0" points="21.5 34.9 21.5 34.9 22 34.8 22.9 34.5 22.9 34.5 21.9 30.8 20.5 31.1 21.5 34.9"/>
        <polygon class="st0" points="25.9 33.3 25.9 33.3 26.3 33.1 27.1 32.6 27.1 32.6 25.1 29.2 23.9 29.9 25.9 33.3"/>
        <polygon class="st0" points="29.6 30.6 29.6 30.7 30 30.3 30.6 29.6 30.6 29.6 27.9 26.9 26.9 27.9 29.6 30.6"/>
        <polygon class="st0" points="32.6 27.1 32.6 27.1 32.8 26.7 33.3 25.9 33.3 25.9 29.9 23.9 29.2 25.2 32.6 27.1"/>
        <polygon class="st0" points="34.5 22.9 34.5 22.9 34.7 22.4 34.9 21.5 34.9 21.5 31.1 20.5 30.8 21.9 34.5 22.9"/>
        <polygon class="st0" points="35.3 18.4 35.3 18.4 35.3 17.9 35.3 17 35.3 17 31.4 17 31.4 18.4 35.3 18.4"/>
        <polygon class="st0" points="34.9 13.8 34.9 13.8 34.8 13.3 34.5 12.4 34.5 12.4 30.8 13.4 31.1 14.8 34.9 13.8"/>
        <polygon class="st0" points="33.3 9.5 33.3 9.5 33.1 9 32.6 8.2 32.6 8.2 29.2 10.2 29.9 11.4 33.3 9.5"/>
        <polygon class="st0" points="30.6 5.7 30.7 5.7 30.3 5.3 29.6 4.7 29.6 4.7 26.9 7.4 27.9 8.5 30.6 5.7"/>
        <polygon class="st0" points="27.1 2.8 27.1 2.7 26.7 2.5 25.9 2 25.9 2 23.9 5.4 25.2 6.1 27.1 2.8"/>
        <polygon class="st0" points="22.9 .8 22.9 .8 22.4 .7 21.5 .4 21.5 .5 20.5 4.2 21.9 4.6 22.9 .8"/>
        <polygon class="st0" points="20.1 4.2 20.1 4.2 19.6 4.1 18.9 4 18.9 4.1 18.4 7.9 19.5 8.1 20.1 4.2"/>
        <polygon class="st0" points="16.5 4.1 16.5 4 16.1 4.1 15.3 4.2 15.3 4.2 15.8 8.1 17 7.9 16.5 4.1"/>
        <polygon class="st0" points="13 4.8 13 4.8 12.6 5 11.9 5.3 11.9 5.3 13.4 8.9 14.5 8.4 13 4.8"/>
        <polygon class="st0" points="9.8 6.5 9.8 6.4 9.4 6.7 8.8 7.2 8.9 7.2 11.2 10.3 12.2 9.6 9.8 6.5"/>
        <polygon class="st0" points="7.2 8.9 7.1 8.9 6.9 9.2 6.4 9.8 6.4 9.8 9.5 12.2 10.2 11.3 7.2 8.9"/>
        <polygon class="st0" points="5.2 11.9 5.2 11.9 5 12.3 4.8 13 4.8 13 8.4 14.5 8.8 13.4 5.2 11.9"/>
        <polygon class="st0" points="4.2 15.3 4.1 15.3 4.1 15.7 4 16.5 4 16.5 7.9 17 8 15.8 4.2 15.3"/>
        <polygon class="st0" points="4 18.9 4 18.9 4 19.3 4.1 20 4.2 20 8 19.5 7.9 18.4 4 18.9"/>
        <polygon class="st0" points="4.8 22.4 4.7 22.4 4.9 22.8 5.2 23.5 5.2 23.5 8.8 22 8.4 20.9 4.8 22.4"/>
        <polygon class="st0" points="6.4 25.5 6.4 25.5 6.7 25.9 7.1 26.5 7.2 26.5 10.2 24.1 9.5 23.2 6.4 25.5"/>
        <polygon class="st0" points="8.8 28.2 8.8 28.2 9.1 28.5 9.8 28.9 9.8 28.9 12.1 25.8 11.2 25.1 8.8 28.2"/>
        <polygon class="st0" points="11.9 30.1 11.8 30.1 12.2 30.3 12.9 30.6 12.9 30.5 14.4 27 13.3 26.5 11.9 30.1"/>
        <polygon class="st0" points="15.3 31.2 15.3 31.2 15.7 31.3 16.4 31.4 16.4 31.3 17 27.5 15.8 27.3 15.3 31.2"/>
        <polygon class="st0" points="18.8 31.3 18.8 31.4 19.3 31.3 20 31.2 20 31.2 19.5 27.3 18.3 27.5 18.8 31.3"/>
        <polygon class="st0" points="22.3 30.6 22.4 30.6 22.7 30.4 23.5 30.1 23.4 30.1 22 26.5 20.9 27 22.3 30.6"/>
        <polygon class="st0" points="25.5 28.9 25.5 28.9 25.9 28.7 26.5 28.2 26.5 28.2 24.1 25.1 23.1 25.8 25.5 28.9"/>
        <polygon class="st0" points="28.2 26.5 28.2 26.5 28.5 26.2 28.9 25.6 28.9 25.6 25.8 23.2 25.1 24.1 28.2 26.5"/>
        <polygon class="st0" points="30.1 23.5 30.1 23.5 30.3 23.1 30.6 22.4 30.5 22.4 27 20.9 26.5 22 30.1 23.5"/>
        <polygon class="st0" points="31.2 20.1 31.2 20.1 31.3 19.7 31.4 18.9 31.3 18.9 27.5 18.4 27.3 19.6 31.2 20.1"/>
        <polygon class="st0" points="31.3 16.5 31.4 16.5 31.3 16.1 31.2 15.3 31.2 15.4 27.3 15.9 27.5 17 31.3 16.5"/>
        <polygon class="st0" points="30.6 13 30.6 13 30.4 12.6 30.1 11.9 30.1 11.9 26.5 13.4 27 14.5 30.6 13"/>
        <polygon class="st0" points="28.9 9.9 28.9 9.8 28.7 9.5 28.2 8.9 28.2 8.9 25.1 11.3 25.8 12.2 28.9 9.9"/>
        <polygon class="st0" points="26.5 7.2 26.5 7.2 26.2 6.9 25.6 6.5 25.5 6.5 23.2 9.6 24.1 10.3 26.5 7.2"/>
        <polygon class="st0" points="23.5 5.3 23.5 5.3 23.1 5.1 22.4 4.8 22.4 4.9 20.9 8.4 22 8.9 23.5 5.3"/>
      </g>
    </g>
  </g>
</svg>