<?xml version="1.0" encoding="UTF-8"?>
<svg id="Layer_2" xmlns="http://www.w3.org/2000/svg" version="1.1" viewBox="0 0 318.6 82.8">
  <!-- Generator: Adobe Illustrator 30.1.0, SVG Export Plug-In . SVG Version: 2.1.1 Build 136)  -->
  <defs>
    <style>
      .st0 {
        fill: #fff;
        stroke: #f0f0f0;
        stroke-miterlimit: 10;
        stroke-width: 2px;
      }

      .st1 {
        fill: #f0f0f0;
      }
    </style>
  </defs>
  <line class="st0" x1="201.2" y1="0" x2="201.2" y2="82.8"/>
  <g>
    <path class="st1" d="M221.8,24.6h-3.3v-1.9h3.3c.5,0,1,0,1.3-.3s.6-.4.7-.7.2-.7.2-1.1,0-.8-.2-1.1-.4-.6-.7-.8-.8-.3-1.3-.3h-2.5v10.9h-2.4v-12.8h4.9c1,0,1.9.2,2.6.5s1.2.8,1.6,1.5.6,1.3.6,2.1-.2,1.5-.6,2.1-.9,1.1-1.6,1.4-1.6.5-2.6.5h0Z"/>
    <path class="st1" d="M230.6,21.7v7.6h-2.3v-9.5h2.2v1.9h.1ZM233.5,19.7v2.2c-.2,0-.3,0-.5,0s-.3,0-.4,0c-.4,0-.7,0-.9.1s-.5.2-.7.4-.3.4-.4.7-.1.5-.2.9h-.5c0-.7,0-1.2.2-1.7s.3-1,.5-1.4.5-.7.9-.9.8-.3,1.2-.3.3,0,.4,0,.3,0,.4,0h0Z"/>
    <path class="st1" d="M234.1,24.6v-.2c0-.7.1-1.3.3-1.9s.5-1.1.9-1.5.9-.8,1.4-1,1.2-.4,1.9-.4,1.4.1,1.9.4,1,.6,1.4,1,.7,1,.9,1.5.3,1.2.3,1.9v.2c0,.7-.1,1.3-.3,1.9s-.5,1.1-.9,1.5-.9.8-1.4,1-1.2.4-1.9.4-1.3-.1-1.9-.4-1-.6-1.4-1-.7-1-.9-1.5-.3-1.2-.3-1.9h0ZM236.4,24.4v.2c0,.4,0,.8.1,1.2s.2.7.4,1,.4.5.7.6.6.2,1,.2.7,0,1-.2.5-.4.7-.6.3-.6.4-1,.1-.8.1-1.2v-.2c0-.4,0-.8-.1-1.2s-.2-.7-.4-1-.4-.5-.7-.7-.6-.2-1-.2-.7,0-1,.2-.5.4-.7.7-.3.6-.4,1-.1.8-.1,1.2h0Z"/>
    <path class="st1" d="M244.3,24.6v-.2c0-.7,0-1.4.3-2s.4-1.1.8-1.5.7-.8,1.2-1,1-.4,1.6-.4,1.2.1,1.6.3.8.5,1.1,1,.5.9.7,1.5.3,1.2.4,1.9v.5c0,.7-.2,1.3-.4,1.9s-.4,1-.7,1.5-.7.7-1.1,1-.9.3-1.5.3-1.1-.1-1.6-.4-.9-.6-1.2-1-.6-.9-.8-1.5-.3-1.2-.3-1.9ZM250.7,19.7h2.1v9.2c0,.9-.2,1.6-.6,2.2s-.9,1.1-1.6,1.4-1.4.5-2.3.5-.8,0-1.2-.2-.9-.3-1.3-.5-.8-.5-1-.9l1.1-1.4c.3.4.7.6,1.1.8s.8.3,1.3.3.9,0,1.2-.3.6-.4.8-.8.3-.7.3-1.2v-7.1l.2-2.2h0ZM246.6,24.4v.2c0,.4,0,.8.1,1.1s.2.7.4,1,.4.5.6.6.6.2.9.2.9-.1,1.2-.3.5-.5.7-.8.3-.8.3-1.2v-1.4c0-.4,0-.7-.2-1s-.2-.6-.4-.8-.4-.4-.6-.5-.6-.2-.9-.2-.7,0-.9.2-.5.4-.6.6-.3.6-.4,1-.1.8-.1,1.2h0Z"/>
    <path class="st1" d="M257.2,21.7v7.6h-2.3v-9.5h2.2v1.9ZM260.1,19.7v2.2c-.2,0-.3,0-.5,0s-.3,0-.5,0c-.4,0-.7,0-.9.1s-.5.2-.7.4-.3.4-.4.7-.1.5-.2.9h-.5c0-.7,0-1.2.2-1.7s.3-1,.5-1.4.5-.7.9-.9.8-.3,1.2-.3.3,0,.4,0,.3,0,.4,0h0Z"/>
    <path class="st1" d="M266.6,23.5v1.4s-1.5,0-1.5,0c-.4,0-.7,0-1,.1s-.5.2-.7.3-.3.3-.4.5-.1.4-.1.6,0,.5.2.6.3.3.5.4.5.2.7.2c.4,0,.8,0,1.1-.2s.5-.4.7-.6.3-.5.3-.7l.7,1c0,.2-.2.5-.4.8s-.4.5-.6.8-.6.4-.9.6-.8.2-1.3.2-1.2-.1-1.6-.4-.9-.6-1.1-1-.4-.9-.4-1.5,0-1,.3-1.3.5-.7.8-1,.8-.5,1.4-.6,1.2-.2,1.9-.2h1.6ZM266.3,27.2v-4.4c0-.3,0-.6-.2-.8s-.3-.4-.5-.5-.5-.2-.9-.2-.6,0-.8.2-.4.2-.5.4-.2.4-.2.6h-2.3c0-.4,0-.8.3-1.1s.5-.7.8-1,.8-.5,1.3-.7,1-.2,1.6-.2,1.4.1,1.9.4,1,.6,1.3,1.1.5,1.1.5,1.8v4.1c0,.5,0,.9,0,1.2s.1.6.3.9h0c0,.1-2.4.1-2.4.1-.1-.2-.2-.5-.2-.9s0-.7,0-1.1h0Z"/>
    <path class="st1" d="M273.1,21.7v7.6h-2.3v-9.5h2.2v2ZM272.7,24.1h-.7c0-.7,0-1.3.2-1.8s.4-1,.7-1.5.7-.7,1.2-1,1-.3,1.6-.3.8,0,1.2.2.7.3.9.6.5.6.6,1,.2.9.2,1.5v6.4h-2.3v-6.1c0-.5,0-.8-.2-1s-.3-.4-.5-.5-.5-.1-.8-.1-.7,0-.9.2-.5.3-.6.6-.3.5-.4.9-.1.7-.1,1.1h0ZM278.5,23.7l-1,.2c0-.6,0-1.2.2-1.7s.4-1,.7-1.4.7-.7,1.1-.9,1-.3,1.6-.3.9,0,1.3.2.7.3,1,.6.5.6.6,1.1.2,1,.2,1.6v6.1h-2.3v-6.1c0-.5,0-.8-.2-1.1s-.3-.4-.5-.5-.5-.1-.8-.1-.6,0-.8.2-.4.3-.6.5-.3.5-.4.7-.1.6-.1.9h0Z"/>
    <path class="st1" d="M295.8,19.7v1.7h-5.7v-1.7h5.7ZM293.9,29.2h-2.3v-10.4c0-.7.1-1.3.4-1.8s.7-.9,1.2-1.1,1.1-.4,1.8-.4.5,0,.6,0,.4,0,.6.1v1.8c-.1,0-.3,0-.4,0s-.3,0-.4,0c-.3,0-.6,0-.8.2s-.4.3-.5.5-.2.5-.2.8v10.4h0Z"/>
    <path class="st1" d="M296.9,24.6v-.2c0-.7.1-1.3.3-1.9s.5-1.1.9-1.5.9-.8,1.4-1,1.2-.4,1.9-.4,1.4.1,1.9.4,1,.6,1.4,1,.7,1,.9,1.5.3,1.2.3,1.9v.2c0,.7-.1,1.3-.3,1.9s-.5,1.1-.9,1.5-.9.8-1.4,1-1.2.4-1.9.4-1.3-.1-1.9-.4-1-.6-1.4-1-.7-1-.9-1.5-.3-1.2-.3-1.9h0ZM299.2,24.4v.2c0,.4,0,.8.1,1.2s.2.7.4,1,.4.5.7.6.6.2,1,.2.7,0,1-.2.5-.4.7-.6.3-.6.4-1,.1-.8.1-1.2v-.2c0-.4,0-.8-.1-1.2s-.2-.7-.4-1-.4-.5-.7-.7-.6-.2-1-.2-.7,0-1,.2-.5.4-.7.7-.3.6-.4,1-.1.8-.1,1.2h0Z"/>
    <path class="st1" d="M309.8,21.7v7.6h-2.3v-9.5h2.2v1.9ZM312.7,19.7v2.2c-.2,0-.3,0-.5,0s-.3,0-.5,0c-.4,0-.7,0-.9.1s-.5.2-.7.4-.3.4-.4.7-.1.5-.2.9h-.5c0-.7,0-1.2.2-1.7s.3-1,.5-1.4.5-.7.9-.9.8-.3,1.2-.3.3,0,.4,0,.3,0,.4,0h0Z"/>
    <path class="st1" d="M226.9,41.6v5c-.2.2-.5.5-.9.8s-.9.5-1.6.7-1.4.3-2.4.3-1.6-.1-2.2-.4-1.2-.7-1.7-1.2-.9-1.2-1.1-1.9-.4-1.6-.4-2.6v-.8c0-1,.1-1.8.4-2.6s.6-1.4,1.1-1.9,1-.9,1.7-1.2,1.4-.4,2.2-.4,2,.2,2.7.5,1.2.8,1.6,1.5.6,1.3.7,2.2h-2.4c0-.5-.2-.8-.4-1.2s-.5-.6-.8-.8-.8-.3-1.4-.3-.9,0-1.3.3-.7.5-.9.8-.4.8-.6,1.3-.2,1.1-.2,1.8v.9c0,.7,0,1.3.2,1.8s.3,1,.6,1.3.6.6,1,.8.9.3,1.4.3.8,0,1.1-.1.5-.2.7-.3.3-.2.4-.3v-2.4h-2.5v-1.8h5Z"/>
    <path class="st1" d="M231.4,34.7v13.5h-2.3v-13.5h2.3Z"/>
    <path class="st1" d="M233.2,43.6v-.2c0-.7.1-1.3.3-1.9s.5-1.1.9-1.5.9-.8,1.4-1,1.2-.4,1.9-.4,1.4.1,1.9.4,1,.6,1.4,1,.7,1,.9,1.5.3,1.2.3,1.9v.2c0,.7-.1,1.3-.3,1.9s-.5,1.1-.9,1.5-.9.8-1.4,1-1.2.4-1.9.4-1.3-.1-1.9-.4-1-.6-1.4-1-.7-1-.9-1.5-.3-1.2-.3-1.9h0ZM235.6,43.4v.2c0,.4,0,.8.1,1.2s.2.7.4,1,.4.5.7.7.6.2,1,.2.7,0,1-.2.5-.4.7-.7.3-.6.4-1,.1-.8.1-1.2v-.2c0-.4,0-.8-.1-1.2s-.2-.7-.4-1-.4-.5-.7-.7-.6-.2-1-.2-.7,0-1,.2-.5.4-.7.7-.3.6-.4,1-.1.8-.1,1.2h0Z"/>
    <path class="st1" d="M243.8,34.7h2.3v11.4l-.2,2.1h-2.1s0-13.5,0-13.5ZM252.3,43.4v.2c0,.7,0,1.4-.2,2s-.4,1.1-.7,1.5-.7.8-1.2,1-1,.4-1.6.4-1.1-.1-1.5-.3-.8-.5-1.1-1-.5-.9-.7-1.5-.3-1.2-.4-1.9v-.5c0-.7.2-1.3.4-1.9s.4-1.1.7-1.5.6-.8,1.1-1,.9-.3,1.5-.3,1.2.1,1.6.4.9.6,1.2,1,.5.9.7,1.5.2,1.2.2,2h0ZM250,43.6v-.2c0-.4,0-.8-.1-1.2s-.2-.7-.3-1-.4-.5-.6-.7-.6-.2-.9-.2-.7,0-.9.2-.5.3-.6.5-.3.5-.4.8-.1.6-.2,1v1.4c0,.5.1.9.3,1.2s.4.7.7.9.7.3,1.2.3.7,0,.9-.2.4-.4.6-.6.2-.6.3-1,0-.8,0-1.2h0Z"/>
    <path class="st1" d="M259.5,42.5v1.4s-1.5,0-1.5,0c-.4,0-.7,0-1,.1s-.5.2-.7.3-.3.3-.4.5-.1.4-.1.7,0,.5.2.6c.1.2.3.3.5.4s.5.2.7.2c.4,0,.8,0,1.1-.2s.5-.4.7-.6.3-.5.3-.7l.7,1c0,.2-.2.5-.4.8s-.4.5-.6.8-.6.4-.9.6-.8.2-1.3.2-1.2-.1-1.6-.4-.9-.6-1.1-1-.4-.9-.4-1.5,0-1,.3-1.3.5-.7.8-1,.8-.5,1.4-.6c.5-.1,1.2-.2,1.9-.2h1.6ZM259.2,46.2v-4.4c0-.3,0-.6-.2-.8s-.3-.4-.5-.5-.5-.2-.9-.2-.6,0-.8.2-.4.2-.5.4-.2.4-.2.7h-2.3c0-.4,0-.8.3-1.1s.5-.7.8-1,.8-.5,1.3-.7c.5-.2,1-.2,1.6-.2s1.4.1,1.9.4,1,.6,1.3,1.1.5,1.1.5,1.8v4.2c0,.5,0,.9,0,1.2s.1.6.3.9v.2h-2.4c-.1-.2-.2-.5-.2-.9s0-.7,0-1.1h0Z"/>
    <path class="st1" d="M266.1,34.7v13.5h-2.3v-13.5h2.3Z"/>
    <path class="st1" d="M282,35.4v1.9h-10.3v-1.9h10.3ZM278,35.4v12.8h-2.4v-12.8h2.4Z"/>
    <path class="st1" d="M283.4,36.2c0-.3.1-.6.4-.9s.6-.3,1-.3.7.1,1,.3.4.5.4.9-.1.6-.4.8-.6.3-1,.3-.7-.1-1-.3-.4-.5-.4-.8ZM285.9,38.7v9.5h-2.3v-9.5s2.3,0,2.3,0Z"/>
    <path class="st1" d="M290.4,40.7v7.6h-2.3v-9.5h2.2s.1,2,.1,1.9ZM290.1,43.1h-.7c0-.7,0-1.3.2-1.8s.4-1,.7-1.5.7-.7,1.2-1,1-.3,1.6-.3.8,0,1.2.2.7.3.9.6.5.6.6,1,.2.9.2,1.5v6.3h-2.3v-6.1c0-.5,0-.8-.2-1s-.3-.4-.5-.5-.5-.2-.8-.2-.7,0-.9.2-.5.3-.6.6-.3.5-.4.9-.1.7-.1,1.1h0ZM295.8,42.7l-1,.2c0-.6,0-1.2.2-1.7s.4-1,.7-1.4.7-.7,1.1-.9,1-.3,1.6-.3.9,0,1.3.2.7.3,1,.6.5.7.6,1.1.2,1,.2,1.7v6.1h-2.3v-6.1c0-.5,0-.8-.2-1.1s-.3-.4-.5-.5-.5-.2-.8-.2-.6,0-.8.2-.4.3-.6.5-.3.5-.4.7-.1.6-.1.9h0Z"/>
    <path class="st1" d="M308,48.4c-.7,0-1.4-.1-1.9-.3s-1.1-.6-1.5-1-.7-.9-.9-1.5-.3-1.2-.3-1.8v-.3c0-.7.1-1.4.3-2s.5-1.1.9-1.5.9-.8,1.4-1,1.1-.3,1.8-.3,1.3.1,1.8.3,1,.5,1.3,1,.6.9.8,1.5.3,1.2.3,1.9v1h-7.5v-1.6h5.2v-.2c0-.4,0-.7-.2-1s-.3-.5-.6-.7-.6-.3-1-.3-.6,0-.9.2-.5.4-.6.6-.3.6-.4,1-.1.8-.1,1.2v.3c0,.4,0,.8.2,1.1s.3.6.5.9.5.4.8.6.6.2,1,.2.9,0,1.3-.3.7-.5,1-.8l1.2,1.2c-.2.3-.5.6-.8.8s-.7.5-1.2.7-1,.2-1.6.2h0Z"/>
    <path class="st1" d="M224.4,63h2.4c0,.9-.3,1.6-.7,2.3s-1,1.2-1.7,1.6-1.6.6-2.7.6-1.5-.1-2.2-.4-1.2-.7-1.6-1.2-.8-1.2-1-1.9-.4-1.6-.4-2.5v-1c0-.9.1-1.8.4-2.5s.6-1.4,1.1-1.9,1-.9,1.7-1.2,1.4-.4,2.2-.4,1.9.2,2.6.6,1.3.9,1.7,1.6.6,1.4.7,2.3h-2.4c0-.5-.2-1-.4-1.4s-.5-.7-.8-.9-.9-.3-1.4-.3-.9,0-1.2.3-.6.4-.9.8-.4.8-.5,1.3-.2,1.1-.2,1.8v1c0,.7,0,1.2.2,1.8s.3.9.5,1.3.5.6.9.8.8.3,1.3.3,1.1,0,1.4-.3.7-.5.9-.8.3-.8.4-1.3h0Z"/>
    <path class="st1" d="M228.1,62.6v-.2c0-.7.1-1.3.3-1.9s.5-1.1.9-1.5.9-.8,1.4-1,1.2-.4,1.9-.4,1.4.1,1.9.4,1,.6,1.4,1,.7,1,.9,1.5.3,1.2.3,1.9v.2c0,.7-.1,1.3-.3,1.9s-.5,1.1-.9,1.5-.9.8-1.4,1-1.2.4-1.9.4-1.3-.1-1.9-.4-1-.6-1.4-1-.7-.9-.9-1.5-.3-1.2-.3-1.9h0ZM230.4,62.4v.2c0,.4,0,.8.1,1.2,0,.4.2.7.4,1s.4.5.7.7.6.2,1,.2.7,0,1-.2.5-.4.7-.7.3-.6.4-1,.1-.8.1-1.2v-.2c0-.4,0-.8-.1-1.2s-.2-.7-.4-1-.4-.5-.7-.7-.6-.2-1-.2-.7,0-1,.2-.5.4-.7.7-.3.6-.4,1-.1.8-.1,1.2h0Z"/>
    <path class="st1" d="M238.3,62.6v-.2c0-.7.1-1.3.3-1.9s.5-1.1.9-1.5.9-.8,1.4-1,1.2-.4,1.9-.4,1.4.1,1.9.4,1,.6,1.4,1,.7,1,.9,1.5.3,1.2.3,1.9v.2c0,.7-.1,1.3-.3,1.9s-.5,1.1-.9,1.5-.9.8-1.4,1-1.2.4-1.9.4-1.3-.1-1.9-.4-1-.6-1.4-1-.7-.9-.9-1.5-.3-1.2-.3-1.9h0ZM240.6,62.4v.2c0,.4,0,.8.1,1.2,0,.4.2.7.4,1s.4.5.7.7.6.2,1,.2.7,0,1-.2.5-.4.7-.7.3-.6.4-1,.1-.8.1-1.2v-.2c0-.4,0-.8-.1-1.2s-.2-.7-.4-1-.4-.5-.7-.7-.6-.2-1-.2-.7,0-1,.2-.5.4-.7.7-.3.6-.4,1-.1.8-.1,1.2h0Z"/>
    <path class="st1" d="M251.2,59.7v7.6h-2.3v-9.5h2.2v1.9q.1,0,.1,0ZM254.1,57.7v2.2c-.2,0-.3,0-.5,0s-.3,0-.4,0c-.4,0-.7,0-.9.2s-.5.2-.7.4-.3.4-.4.7-.1.5-.2.9h-.5c0-.7,0-1.2.2-1.7s.3-1,.5-1.3.5-.7.9-.9.8-.3,1.2-.3.3,0,.4,0,.3,0,.4,0h0Z"/>
    <path class="st1" d="M254.8,62.6v-.2c0-.7,0-1.4.2-2s.4-1.1.7-1.5c.3-.4.7-.8,1.2-1s1-.3,1.6-.3,1.1.1,1.5.3.8.5,1.1,1,.5.9.7,1.5.3,1.2.4,1.9v.5c0,.7-.2,1.3-.4,1.8s-.4,1.1-.7,1.5-.7.7-1.1,1-.9.3-1.5.3-1.1-.1-1.6-.4-.9-.6-1.2-1-.6-.9-.7-1.5-.2-1.2-.2-1.9h0ZM257.1,62.4v.2c0,.4,0,.8.1,1.2s.2.7.3.9.4.5.6.6.5.2.9.2.8,0,1.1-.3.5-.5.7-.8.3-.8.3-1.2v-1.4c0-.3,0-.7-.2-1s-.2-.6-.4-.8-.4-.4-.6-.5-.5-.2-.9-.2-.7,0-.9.2-.5.4-.6.7-.3.6-.4,1-.1.8-.1,1.2h0ZM260.9,65.2v-11.5h2.3v13.5h-2.1s-.2-2-.2-2Z"/>
    <path class="st1" d="M265.3,55.2c0-.3.1-.6.4-.9s.6-.3,1-.3.7.1,1,.3.4.5.4.9-.1.6-.4.8-.6.3-1,.3-.7-.1-1-.3-.4-.5-.4-.8ZM267.8,57.7v9.5h-2.3v-9.5s2.3,0,2.3,0Z"/>
    <path class="st1" d="M272.2,59.8v7.5h-2.3v-9.5h2.2s.1,2,.1,2ZM271.9,62.1h-.7c0-.7.1-1.3.3-1.9s.4-1,.8-1.5.7-.7,1.2-.9,1-.3,1.5-.3.9,0,1.2.2.7.3,1,.6.5.7.6,1.1.2,1,.2,1.7v6.1h-2.3v-6.1c0-.4,0-.8-.2-1s-.3-.4-.5-.5-.5-.2-.9-.2-.7,0-.9.2-.5.3-.7.6-.3.5-.4.9-.1.7-.1,1.1h0Z"/>
    <path class="st1" d="M285.6,61.5v1.4s-1.5,0-1.5,0c-.4,0-.7,0-1,.1s-.5.2-.7.3-.3.3-.4.5-.1.4-.1.6,0,.4.2.6.3.3.5.4.5.2.7.2c.4,0,.8,0,1.1-.2s.5-.4.7-.6.3-.5.3-.7l.7,1c0,.2-.2.5-.4.8s-.4.5-.6.8-.6.4-.9.6-.8.2-1.3.2-1.2-.1-1.6-.4-.9-.6-1.1-1-.4-.9-.4-1.5,0-1,.3-1.3.5-.7.8-1,.8-.5,1.4-.6,1.2-.2,1.9-.2h1.6ZM285.3,65.2v-4.4c0-.3,0-.6-.2-.8s-.3-.4-.5-.5-.5-.2-.9-.2-.6,0-.8.2-.4.2-.5.4-.2.4-.2.7h-2.3c0-.4,0-.8.3-1.1s.5-.7.8-1,.8-.5,1.3-.7,1-.2,1.6-.2,1.4.1,1.9.4,1,.6,1.3,1.1.5,1.1.5,1.8v4.2c0,.5,0,.9,0,1.2s.1.6.3.9v.2h-2.4c-.1-.2-.2-.6-.2-.9s0-.7,0-1.1h0Z"/>
    <path class="st1" d="M294.2,57.7v1.7h-5.5v-1.7h5.5ZM290.2,55.4h2.3v9.1c0,.3,0,.5.1.7s.2.2.3.3.3,0,.5,0,.3,0,.4,0,.2,0,.3,0v1.7c-.2,0-.4.1-.6.2s-.5,0-.8,0c-.5,0-1,0-1.4-.3s-.7-.5-.9-.9-.3-.9-.3-1.6v-9.3h0Z"/>
    <path class="st1" d="M295.7,55.2c0-.3.1-.6.4-.9s.6-.3,1-.3.7.1,1,.3.4.5.4.9-.1.6-.4.8-.6.3-1,.3-.7-.1-1-.3-.4-.5-.4-.8ZM298.2,57.7v9.5h-2.3v-9.5s2.3,0,2.3,0Z"/>
    <path class="st1" d="M300,62.6v-.2c0-.7.1-1.3.3-1.9s.5-1.1.9-1.5.9-.8,1.4-1,1.2-.4,1.9-.4,1.4.1,1.9.4,1,.6,1.4,1,.7,1,.9,1.5.3,1.2.3,1.9v.2c0,.7-.1,1.3-.3,1.9s-.5,1.1-.9,1.5-.9.8-1.4,1-1.2.4-1.9.4-1.3-.1-1.9-.4-1-.6-1.4-1-.7-.9-.9-1.5-.3-1.2-.3-1.9h0ZM302.3,62.4v.2c0,.4,0,.8.1,1.2,0,.4.2.7.4,1s.4.5.7.7.6.2,1,.2.7,0,1-.2.5-.4.7-.7.3-.6.4-1,.1-.8.1-1.2v-.2c0-.4,0-.8-.1-1.2s-.2-.7-.4-1-.4-.5-.7-.7-.6-.2-1-.2-.7,0-1,.2-.5.4-.7.7-.3.6-.4,1-.1.8-.1,1.2h0Z"/>
    <path class="st1" d="M312.9,59.8v7.5h-2.3v-9.5h2.2s.1,2,.1,2ZM312.5,62.1h-.7c0-.7.1-1.3.3-1.9s.4-1,.8-1.5.7-.7,1.2-.9,1-.3,1.5-.3.9,0,1.2.2.7.3,1,.6.5.7.6,1.1.2,1,.2,1.7v6.1h-2.3v-6.1c0-.4,0-.8-.2-1s-.3-.4-.5-.5-.5-.2-.9-.2-.7,0-.9.2-.5.3-.7.6-.3.5-.4.9-.1.7-.1,1.1h0Z"/>
  </g>
  <g>
    <path id="path927" class="st1" d="M90.9,16.5h4.8v15.2c0,2.7-.8,4.7-2.5,6.1-3.8,2.8-8.9,2.8-12.7,0-1.7-1.4-2.5-3.4-2.5-6.1v-15.2h4.8v15.2c0,1.5.4,2.6,1.1,3.3,1.8,1.4,4.2,1.4,6,0,.7-.7,1.1-1.8,1.1-3.3v-15.2ZM106.2,25.8c-1.2,0-2.3.6-2.9,1.6v12.1h-4.6v-17.1h4.3v1.9c1.3-1.5,3.1-2.4,5-2.3,1.4,0,2.9.5,3.9,1.4,1,1,1.5,2.7,1.5,5.1v10.9h-4.6v-10.8c0-1.1-.2-1.9-.7-2.2-.5-.5-1.2-.7-1.9-.6h0ZM116.5,18c0-.6.2-1.2.7-1.7,1.1-.9,2.6-.9,3.7,0,.5.4.7,1,.7,1.7,0,.6-.2,1.2-.7,1.7-1.1.9-2.6.9-3.7,0-.4-.5-.7-1-.7-1.7ZM121.4,22.4v17.1h-4.6v-17.1h4.6ZM133.3,39.5c-.9.3-1.8.4-2.7.4-1.3,0-2.6-.4-3.6-1.2-.9-.8-1.3-2-1.3-3.9v-9h-2.6v-3.4h2.6v-4.2h4.6v4.2h2.9v3.4h-2.9v8.6c0,.5,0,1,.4,1.4.4.2.8.4,1.3.4.2,0,.5,0,.7,0,.2,0,.4,0,.6,0v3.4h0ZM149.8,36.8c-.7.9-1.5,1.6-2.5,2.1-1.3.7-2.7,1-4.2,1-2.7,0-4.8-.8-6.3-2.4-1.5-1.6-2.3-3.7-2.2-5.8v-.6c-.1-2.3.7-4.6,2.2-6.3,1.5-1.7,3.6-2.6,5.8-2.5,2.5,0,4.4.7,5.6,2.3s1.9,3.6,1.9,6.1v1.9h-10.9c.1,1,.6,2,1.3,2.7.8.7,1.8,1.1,2.9,1,1.6,0,3.1-.6,4.1-1.9l2.2,2.5h0ZM142.6,25.8c-.9,0-1.7.3-2.2,1-.6.7-.9,1.6-1.1,2.5h6.4v-.4c0-.8-.3-1.6-.8-2.3-.6-.6-1.4-1-2.3-.9h0ZM162.9,39.6l-.2-1.8c-.5.7-1.1,1.2-1.9,1.6-2.6,1.2-5.7.4-7.4-1.9-1.2-1.8-1.9-4-1.7-6.2v-.3c0-2.6.6-4.7,1.7-6.3,1.1-1.6,3-2.5,5-2.4,1.6,0,3.1.6,4.1,1.9v-8.7h4.6v24.3h-4.2ZM156.2,31.2c0,1.2.2,2.4.8,3.5.5,1,1.5,1.5,2.6,1.4,1.2,0,2.4-.6,3-1.7v-6.8c-.5-1.2-1.7-1.9-3-1.8-1.1,0-2.1.5-2.6,1.5-.6,1.1-.8,2.4-.8,3.6v.3h0ZM96.9,44.1v23.1h-4.7l-9.3-15.2v15.2h-4.8v-23.1h4.8l9.3,15.2v-15.2h4.7ZM110.3,67.1c-.2-.5-.4-1-.4-1.6-.5.6-1.1,1-1.7,1.3-2.2,1-4.8.7-6.7-.9-1.1-.9-1.7-2.3-1.7-3.7,0-1.6.7-3.2,2-4.2,1.3-1,3.3-1.5,5.9-1.5h2.1v-1c0-.7-.2-1.4-.6-1.9-.5-.5-1.2-.8-1.9-.7-1.6,0-2.4.7-2.4,2h-4.6c0-1.5.8-2.9,2-3.8,1.5-1.1,3.4-1.7,5.3-1.6,1.8,0,3.5.5,4.9,1.5,1.3,1,1.9,2.5,1.9,4.5v7.2c0,.8,0,1.6.2,2.4,0,.5.3,1.1.5,1.6v.3h-4.6ZM106.5,64c.7,0,1.4-.2,2-.5.5-.3.9-.7,1.2-1.1v-3h-1.9c-.9,0-1.9.2-2.7.8-.5.5-.9,1.2-.9,1.9,0,.5.2,1,.6,1.4.5.4,1.1.6,1.7.6h0ZM126,67c-.4.1-.8.2-1.2.3-.5,0-1,.1-1.5.1-1.3,0-2.6-.4-3.6-1.2-.9-.8-1.3-2.1-1.3-3.9v-9h-2.6v-3.3h2.6v-4.2h4.6v4.2h2.9v3.3h-2.9v8.6c0,.5,0,1,.4,1.4.4.2.8.4,1.3.4.2,0,.5,0,.7,0,.2,0,.4,0,.6,0v3.4h0ZM127.9,45.6c0-.6.2-1.2.7-1.7,1.1-.9,2.6-.9,3.7,0,.9,1,.9,2.5,0,3.4-1.1.9-2.6.9-3.7,0-.5-.4-.7-1.1-.7-1.7h0ZM132.7,50v17.2h-4.6v-17.2h4.6ZM135.4,58.8v-.3c0-2.3.7-4.5,2.1-6.2,1.4-1.7,3.4-2.5,6-2.5s4.6.8,6,2.5c1.4,1.8,2.2,4,2.1,6.2v.3c0,2.3-.7,4.5-2.1,6.2-1.4,1.7-3.4,2.5-6,2.5s-4.6-.8-6-2.5c-1.4-1.8-2.2-4-2.1-6.2h0ZM140,58.4v.3c0,1.2.2,2.5.8,3.5,1,1.5,3,1.9,4.5.9.4-.2.7-.6.9-.9.6-1.1.8-2.3.8-3.5v-.3c0-1.2-.2-2.5-.8-3.5-.5-1-1.6-1.6-2.7-1.5-1.1,0-2.2.5-2.7,1.5-.6,1.1-.9,2.3-.8,3.5h0ZM161.4,53.4c-1.2,0-2.4.6-2.9,1.7v12.1h-4.6v-17.2h4.3l.2,2c1.2-1.5,3-2.4,4.9-2.3,1.5,0,2.9.4,4,1.4,1,1,1.5,2.7,1.5,5.1v10.9h-4.6v-10.9c0-1.1-.2-1.9-.7-2.2-.6-.4-1.3-.6-2.1-.6h0ZM181,62.3c0-.5-.2-1-.7-1.2-.9-.5-1.8-.8-2.8-.9-1.6-.3-3-.9-4.4-1.7-1.1-.8-1.8-2-1.7-3.4,0-1.5.7-2.8,1.8-3.7,1.2-1.1,2.9-1.6,5-1.6s4,.5,5.3,1.6c1.2,1,2,2.4,1.9,4h-4.6c0-.6-.2-1.2-.6-1.6-.6-.5-1.3-.7-2-.6-.6,0-1.3.1-1.8.5-.4.3-.6.8-.6,1.3,0,.5.2,1,.7,1.2.8.4,1.6.7,2.5.8,1.6.3,3.2.9,4.6,1.7,1.2.8,1.9,2,1.9,3.7,0,1.5-.7,2.9-1.9,3.7-1.3,1-3,1.5-5.3,1.5s-4.2-.6-5.5-1.9c-1.2-1-1.9-2.4-1.9-3.9h4.4c0,.8.4,1.5,1,1.9.6.4,1.4.6,2.2.6,1.7.1,2.6-.5,2.6-1.7h0Z"/>
    <path id="path929" class="st1" d="M53.7,64.7c-1.8.9-3.8,1.1-5.8.7-1.3-.3-2.6-.7-3.8-1.3l-2.7-1.1c-2.4-.8-4.9-.8-7.3-.2h-.2c-2.4-.7-5-.6-7.3.2-.9.3-1.8.7-2.7,1.1-1.2.6-2.5,1-3.9,1.4-2,.4-4,.2-5.8-.7h-.2c0-.1,0-.1,0,0,1.2,1.2,2.7,2.1,4.4,2.6,1.1.3,2.3.4,3.4.2,1.7-.2,3.4-.9,4.9-1.9l2.6-1.7c1-.6,2.2-.8,3.3-.6.6,0,.1.4,0,.4-1.6.7-3,1.7-4.4,2.7-.9.7-2.6,2.3-2.6,2.3l1.2,1.1,1.4-1.5c1.7-1.7,3.6-3.2,5.7-4.4.2-.1.4-.1.6,0,2.1,1.2,4,2.7,5.7,4.4l1.4,1.5,1.2-1.1-2.6-2.3c-1.4-1.1-2.8-2-4.4-2.7-.1,0-.6-.4,0-.4,1.1-.2,2.3,0,3.3.6l2.6,1.7c1.5,1,3.1,1.6,4.8,1.9,1.2.1,2.3,0,3.4-.2,1.6-.5,3.1-1.4,4.4-2.6,0,0,0,0-.1,0h-.2M59.8,59.3c-.8.6-1.7,1.1-2.6,1.4-1.3.4-2.7.6-4.1.6-1.8,0-3.6.2-5.3.4-.1,0-.2,0-.1,0,1.5-.6,2.8-1.8,3.5-3.4l1.7-3.5h0c-.1,0-1.9,1.4-2.7,2.2l-2.9,2.9c-1.3,1.1-2.9,1.9-4.5,2.4h-.1c0,0,3.3.9,3.3.9,1.4.4,2.9.7,4.4.8,3.8.4,7.4-1.3,9.6-4.5,0,0,0,0-.1,0M65.3,51c-.9,1.1-1.9,2-3.1,2.7-1,.7-2.1,1.3-3.2,1.7-1.4.6-2.7,1.3-3.9,2.3l-.2.2s0,0,0,0c0,0,1.9-1.9,2.4-5.8,0-1.4.3-2.8.6-4.2h0c-1.3,1.5-2.3,3.3-3,5.2l-1.1,3.2c-.5,1.4-1.2,2.7-2.3,3.8h-.1v.2c.1,0,.2,0,.4,0l3.6-.7c2-.3,3.9-1.1,5.5-2.3,1.7-1.2,3-2.8,3.9-4.6.2-.5.4-1,.6-1.5.1-.1,0-.1,0,0M67.6,41.6c-.6,1.7-1.6,3.2-2.9,4.5-1.5,1.5-2.8,3-4.1,4.7,0,0-.1,0,0,0,.5-1.7.6-3.5.4-5.3-.2-1.5-.9-3.1-1.1-4.9h0s0,0,0,.1c-.4,1.2-.6,2.4-.7,3.6,0,1.5.2,3.4,0,4.9-.1,1.7-.2,3.5-1.1,5.1h0c0,.1,3.7-2.2,3.7-2.2,1.5-1,2.9-2.2,3.9-3.7,1.3-1.9,2.1-4.2,2-6.5v-.2s0,0-.1,0"/>
    <path id="path931" class="st1" d="M63.7,42.6h0c0-.5,0-1,0-1.5-.1-1.7-1.2-3.2-2.1-4.7-.6-1-1.2-2-1.7-3,0,0,0,0-.1,0,0,.3,0,.7,0,1,.3,2.5.9,5,1.9,7.3.5,1.5.8,3,.6,4.6,0,0,0,.2,0,.2.6-.8,1.7-1.9,2.4-2.8s4.4-5.1,2.6-10.9c0-.3-.2-.5-.3-.8h0c0,4.3-2.1,6.1-2.9,9-.2.5-.3,1.1-.4,1.6M63.7,33.9l-.4-1-.2-.5c-.6-1.1-1.5-2.1-2.5-2.9-.9-.7-1.6-1.6-2.2-2.5h-.2c0,.2.6,2,1,2.9.6,1.2,1.4,2.3,2.2,3.4l.2.2c1,1.4,1.9,3,2.4,4.7,0,0,0,0,0,0h0l1.1-3.2c.4-1.1.7-2.3.9-3.5.4-2.8-.5-6.3-2.1-8.3,0,0,0,0,0,.1v.2c0,0,.2.4.2.4.3,1.5.3,3.1,0,4.6-.2,1.2-.3,2.4-.3,3.7,0,.2.1,1.7.1,1.8s0,0-.1,0M58.7,18.3c.5.5.9,1.1,1.2,1.7.4,1.1.6,2.6.9,3.8l.6,2c0,0,0,.1-.1,0-.9-1.1-2.1-2.1-3.4-2.8-.8-.5-1.6-1.2-2.2-1.9l-.3-.4s0,0-.1,0h0v.2c.3,1.4,1,2.7,1.9,3.7.8.8,1.7,1.4,2.5,2.1,1.1.9,2.1,1.9,3,3,0,0,0,0,0,0v-4c0,0,0-1,0-1,0-1-.2-2-.5-3-.6-1.5-1.8-2.8-3.2-3.5,0,0-.2,0-.3-.1,0,0,0,0,0,.1M52.3,15.4c.9.8,1.6,1.7,2.3,2.7.6,1,1.3,1.9,2.2,2.7.6.6,2.2,1.9,2.7,2.2,0-.5-.9-4-3-5.8-1.3-1-2.7-1.7-4.3-2.1h0c0,.1.2.3.2.3M17.5,63.8c1.5-.1,2.9-.4,4.3-.8l3.4-.8h0s0,0,0,0h0c-1.7-.5-3.3-1.2-4.6-2.4l-2.9-2.8-2.7-2.3h0c.2.5,1.2,2.6,1.7,3.7.7,1.5,1.9,2.7,3.5,3.4,0,0,0,0-.1,0-1.8-.2-3.6-.4-5.4-.4-1.4,0-2.8-.2-4.1-.6-.9-.3-1.8-.8-2.6-1.4h-.1c1.2,1.7,3,3.1,4.9,3.8,1.5.5,3.1.7,4.7.6M16.1,60.2c.1,0,.2,0,.4,0h0c0,0-.1-.2-.1-.2-1-1.1-1.8-2.4-2.3-3.8l-1.1-3.2c-.7-1.9-1.7-3.8-3-5.3h0c.4,1.5.6,2.9.7,4.3.6,3.8,2.4,5.7,2.4,5.8s0,.1,0,0l-.2-.2c-1.2-1-2.5-1.7-3.9-2.3-1.1-.5-2.2-1.1-3.2-1.7-1.2-.7-2.2-1.7-3.1-2.7h0c.2.5.4,1,.6,1.5.9,1.8,2.3,3.4,4,4.6,1.6,1.2,3.5,2,5.5,2.3,1.2.3,2.4.6,3.5.9M6.1,52.1l3.7,2.3s0,0,0-.1c-.8-1.6-.9-3.4-1.1-5.1-.1-1.6.1-3.4,0-4.9-.1-1.2-.4-2.5-.7-3.7,0,0,0-.1,0-.2h0c-.1,1.9-.8,3.5-1.1,5-.2,1.8-.1,3.6.4,5.3,0,0,0,.1,0,0-1.2-1.7-2.6-3.2-4.1-4.7-1.3-1.2-2.3-2.7-2.9-4.4,0,0,0,0-.1,0,0,0,0,.1,0,.2,0,2.3.7,4.6,2.1,6.5,1,1.5,2.3,2.8,3.9,3.7M5.4,46.6s0-.1,0-.2c-.2-1.6,0-3.2.7-4.6.9-2.4,1.5-4.8,1.9-7.3,0-.3,0-.9,0-1,0,0,0,0,0,0-.5,1-1.1,2-1.7,3-1,1.4-2,2.9-2.1,4.6,0,.5,0,1,0,1.5,0,0,0,0,0,0h0c0,0-.4-1.6-.4-1.6-.9-2.9-2.9-4.7-2.9-8.9h0c-.1.2-.2.4-.3.7-1.8,5.8,1.9,10.1,2.6,10.9.8.9,1.7,1.9,2.3,2.7M2.8,35l1.1,3.2s0,0,0,0h0c.6-1.7,1.4-3.2,2.4-4.7l.2-.2c.9-1,1.6-2.2,2.2-3.4.4-.9.9-2.7,1-2.9h-.2c-.6.9-1.4,1.8-2.2,2.5-1.1.8-2,1.8-2.6,2.9,0,.2-.2.4-.2.6l-.4,1.1s0,.1,0,0,.1-1.6.1-1.8c0-1.2-.1-2.5-.4-3.7-.3-1.5-.3-3.1,0-4.6,0-.1,0-.3.1-.4,0,0,0-.2,0-.2s0,0,0-.1c-1.6,2-2.5,5.6-2.2,8.3.3,1.2.6,2.4,1,3.5M5,25.9v3c0,0,0,.9,0,.9h0c.9-1.1,1.9-2.1,2.9-3l2.5-2.1c1-1,1.6-2.3,1.9-3.7v-.2h0l-.3.4c-.6.8-1.3,1.4-2.1,1.9-1.5.9-2.5,1.6-3.4,2.8,0,0-.1,0,0,0l.6-2c.3-1.2.4-2.7.9-3.8.3-.6.7-1.2,1.2-1.7h0c-.1-.1-.2,0-.3,0-1.5.8-2.7,2-3.3,3.6-.4.9-.6,2-.6,3v1.1M8.3,23h0l2.7-2.2c.8-.8,1.6-1.7,2.2-2.7.6-1,1.4-1.9,2.3-2.7l.2-.2h0c-1.6.2-3.1,1-4.3,2-2.3,1.8-3.1,5.3-3.1,5.8M33.3,42.3c.2-.2-.2-.4-.4,0s.2.3.4,0M38,31.3c-.2,0-.9.7-.8.9.3-.2.6-.5.8-.9M38.2,31.2c.1,0,.6-.2.5-.2s-.6-.3-.6-.2c0,.2,0,.3.1.4M46.6,38.9c.2,0,.2-.4,0-.4s-.4.3-.4.3.2.2.4.1M43.5,30.6c-.2,0-.2.2,0,.3.2,0,.3,0,.4,0,.2,0,.2-.2.2-.4,0-.2-.2-.4-.1-.6.1-.1.3,0,.4,0,.1,0,.2-.2.2-.3s0-.5-.3-.5-.5.5-.5.5c0,.1,0,.3,0,.4,0,.2,0,.6-.3.6"/>
    <path id="path933" class="st1" d="M47.6,30.7c.1.4.2.8.4,1.1,0,.2.1.9.2.8s.1-.4,0-.6c0-.4-.2-.9-.3-1.3,0-.2-.5-1.2-.6-1.1-.1,0,.2.6.2.9s0,.1,0,.2M45.4,20.1c.2,0,.2-.3-.1-.6-.3-.2-.8-.1-.7,0,.2.2.5.4.8.6M36.1,17.5c-.4-.2,0-.6-.4-.9-.3-.1-.7,0-1,.2-.3.4.4.2.6.4s.8.6.9.5c0,0,0-.1,0-.2,0,0,0,0,0,0M38.6,16.2c-.6-.2-2.6-.2-2.5.3s1.2,0,1.5,0,1.5,0,1.1-.3M32.9,40.2c-.1,0-.3,0-.4,0,0-.1-.2,0-.2,0,0,.1,0,.2,0,.3.1.1.3.1.5,0,0,0,0-.2,0-.2M31.8,36.1c.2,0,.2-.1.3-.1s0,.1.2.1.4-.4-.2-.4-.4.4-.2.4M32.5,36.5c-.3,0-.2.1-.5.1-.4,0,0-.2-.2-.4,0,0-.2.2-.3.4,0,.1,0,.4.1.4h1.2c.2.1,0-.5-.3-.6M28.6,40.6c.1,0,.2-.4.1-.6s-.4,0-.4,0c0,.2.2.4.3.5M23.7,40.6c0-.1,0-.6-.1-.7s-.1,0-.2,0,0-.2-.1-.2,0,.4.1.6.3.6.3.3M23.6,39.5c.1-.4.2-.7.2-1.1,0-.2,0-.4-.2-.6,0,0,0,.2,0,.5,0,.3,0,.6-.2.9,0,0,.1.4.2.2"/>
    <path id="path935" class="st1" d="M17.2,53.4c9.2,9.2,24.2,9.2,33.5,0,9.2-9.2,9.2-24.2,0-33.5-9.2-9.2-24.2-9.2-33.5,0h0c-9.2,9.2-9.3,24.1,0,33.4,0,0,0,0,0,0M11.3,37.2h3.6c0,1.8.4,3.7.9,5.4-.2,0-.4-.1-.6-.2-.2-.1-.4,0-.5,0-.2,0-.6-.2-.6,0s.2,0,.2.2-.6.1-.7-.1-.2-.5-.2-.2-.3.2-.4.3c0,0-.1.2-.1.3,0,.1-.3,0-.3.2s.2.2.2.4.2.3.1.4,0,0-.2,0c-.1,0,.6,1.9.7,1.9s-.2-.6-.2-.9c0-.2,0-.4.2-.4.2-.1.7.8.9.6s0-.2.1-.3c.2,0,.8.8.9.6.1-.2.2.1.2.2.2.3.5.3.7.7.2.4.6,1.1.9,1.1s.1-.3.2-.3.2.4.4.7c.1.2.3.3.6.4.4.6.9,1.1,1.4,1.7l-2.5,2.5c-3.9-4-6.2-9.5-6.2-15.1M31.9,32h-.2c-.3.3-.7.5-.9.7l-2.5-2.5c1.5-1.3,3.3-2.1,5.3-2.1v3.6c-.5,0-.9.1-1.3.3,0-.2.2-.4.4-.5-.2.1-.5.3-.6.6M30,37.9h0s0,0-.1-.2c0,0-.1-.1-.2-.1h-.4c0,0-.9,0-.9,0-.1,0-.2,0-.2,0,0-.2.3,0,.6-.8,0,0,0-.2.1-.2h0c0-.1,0-.2,0-.2h0c.1-.2.2-.2.4-.2h.2c0,.1.2.5.2.5,0,0,.1,0,.1.1,0,0,.2.1.2.2h0c0,.2,0,.2.1.2h.2c.1,0,.1,0,.2,0h0c0,.1,0,.1,0,.2,0,0,0,0,0,.1,0,0-.1.1-.2.1-.1,0-.2,0-.3,0,0,0-.1,0-.1,0v.3M23.3,43.9c-.2-.3-.3-.7-.2-1.1,0-.4-.1-.8-.3-1.1,0-.2-.1-.5-.1-.7,0-.4-.4-.3-.4-.4s.3,0,.3-.1c-.1-.3-.4-.6-.7-.7-.3-.1-.2-.3-.2-.5,0-.2,0-.4-.1-.5,0-.2,0-.7.3-.7s.3.1.5,0,0-.5,0-.8h1.7c0,.2,0,.6,0,.8-.1,0-.2.2-.1.2s.1.1.2,0c.3,1.8,1.1,3.5,2.4,4.9l-2.5,2.5c-.2-.2-.4-.5-.6-.7v-.2c0-.4-.3-.7-.4-1.1M20.8,39.5c-.2-.8-.3-1.6-.3-2.4h1.5c-.1.2-.4.4-.5.6s-.4.8-.2,1.1c.6.6-.1.9-.5.8M21.1,48.8l-.3.3-.4-.4c.2-.1.5,0,.8.1M25,32.8c0,0,0,0-.1,0-.2.2-.7.1-.6.3,0,.2,1.4-.4,1.4-.3s-.6.3-.9.5-.5.5-1.1.5-.4.2-.6.4c-.2.2-.3.5-.4.8,0,.4,0,.8-.2,1.1h-1.8c.1-3.2,1.4-6.2,3.5-8.6l2.5,2.5c-.6.8-1.2,1.7-1.6,2.7M27.4,30.9l2.2,2.2h-.2c-.2,0-.2-.2-.4-.2-.4,0-.4.2-.5.1-.3-.2-.6-.5-.9-.6-.4-.1-.9-.1-1.2,0,0,0,0,0-.1,0,.4-.6.9-1.1,1.2-1.7M24.2,35.4c0,.2,0,.5,0,.7h-1.3c0-.2,0-.4.1-.6.1-.3.5-.4.7-.3.2,0,.3,0,.5.1M25.4,38.3v.2c.3.1.4.2.5.2.2,0,.3,0,.5,0,.2,0,.3.2.4.3.1.2.4,0,.6.2s.4.2.1.4c-.2.1.2.4.3.4s.1-.1.1-.3.1-.3.3-.2c.2,0,.7.8.9.5s0-.6.1-.7c0,0,0-.1.1-.1.1.3.3.6.6.8l-2.5,2.5c-1.1-1.1-1.8-2.6-2-4.1M27.4,29.5l-2.5-2.5c2.4-2.2,5.4-3.4,8.6-3.5v3.6c-2.3,0-4.4,1-6.1,2.5M24.1,26.2l-2.5-2.5c3.2-3,7.5-4.8,11.9-4.9v3.6c-3.5.1-6.8,1.5-9.3,3.9M23.4,26.9c-2.4,2.5-3.7,5.9-3.9,9.3h-3.6c.1-4.4,1.9-8.6,4.9-11.9l2.5,2.5h0ZM19.5,37.2c0,.7,0,1.3.2,2,0,0,0-.2-.2-.1-.2,0-.9,1.2-1.2,1.7-.2.4.1,1.4-.2,1.7-.4.1-.7.2-1.1.2h0c-.6-1.7-.9-3.5-1-5.3h3.7c0-.1,0-.1,0-.1ZM33.4,59.3c-5.6-.1-11-2.3-15.1-6.3l2.5-2.5c3.4,3.2,7.9,5.1,12.6,5.2v3.6h0ZM33.4,54.7c-4.4-.1-8.6-1.9-11.9-4.9l.4-.4c0,0,.2.1.3.2.3.1.6.2.9.1.2,0,.8-.5,1.1-.5s.8.1,1.1,0-.2-.8-.4-1.1c0,0,0-.1-.1-.2,2.4,2.1,5.5,3.2,8.7,3.3l-.2,3.6h0ZM33.4,50c-3.2-.1-6.2-1.4-8.6-3.5l2.5-2.5c1.2,1.1,2.6,1.9,4.2,2.2-.6.2-.8.6-.7.9,0,.3-.4.5-.4.9s.5.6.6,1c0,.2.5.5.9.7.5.1.9.2,1.4.1,0,0,0,.2,0,.2ZM33.2,45.1c-.2-.1-.3.1-.6.2-1.7-.2-3.3-1-4.6-2.1l2.5-2.5c.8.6,1.7,1,2.7,1.1,0,.1.1.2.1.5s-.2.4-.1.5.6,0,.7-.2-.2-.3-.2-.5c0-.1,0-.2-.1-.3h.2c.2,0,.4,0,.6,0,0,0,.1,0,.1-.1s0-.1,0-.2,0,0,0-.1h0c0,.2.2.6.3.5.1,0,.2-.6.1-.8-.1-.2-.1-.4,0-.6,0,0,0-.4.2-.4.1,0,0,.4,0,.5,0,.2.1.4.3.3.1,0,.2-.2.4-.2s-.3.2-.4.3c0,.1.2.2.1.2,0,0-.1,0-.2,0s.1.4,0,.5-.6.2-.7.2-.2,0-.2-.1c0,0,0-.3-.1-.3s-.1,0-.1.2.1.3.1.4-.2.1-.3.2c-.1.2-.3.4-.5.5-.2.1-.6.1-.6.2s.2.1.2.2c.1.2.2.4,0,.6-.2.1-.6-.2-.7-.1-.1,0-.2.4-.2.7s.7.5,1.1.3c.2-.1.2-.5.4-.6.2-.1.2-.4.4-.3.2,0,.2-.2.4-.2s.2.2.6.2c.5.1.5.5.6.3s.1-.3-.2-.4-.6-.6-.2-.4c.4.2.7.2.8.4s.4.1.5.3c0,.3.3,0,.1-.2s-.1-.2,0-.4.2,0,.4-.2c.2-.2,0-.2-.1-.3,0-.1,0-.8.2-.7s.5,0,.4-.1c-.1,0,0-.4.1-.4s0,.2,0,.3.7-.2.8.1c0,.3-.4.5-.6.5-.2,0-.4.2-.6.5-.2.2-.4.3-.2.6.1.2.4.2.6,0,.2-.1.4-.3.6-.4.2-.1.4.6.3.7-.1.1-.4.2-.5.3-.4.2-.8.3-1.2.4-.2,0-.2.1-.3.4s-1.2,0-1.4,0,.2-.6-.2-.5l-1.1.2c0,0-.4.3-.8,0M36.5,50.9c.3.1.6.3.8.6.2.3.2.4.1.8-.3.6-.2.9.4,1.1.4.1.5.5.8.7-1.4.4-2.8.6-4.2.6v-3.6c.7,0,1.4-.1,2.1-.2M34.4,50.1v-.4c.8-.1.6.4,1.2.2.2,0,.4,0,.5.1-.6,0-1.1,0-1.7.1M34.4,59.4v-3.7c1.9,0,3.7-.4,5.5-1,0,0,.1,0,.2,0,.2,0,.5,0,.7-.2.6-.2,1.2-.5,1.7-.9,1.6-.8,3.2-1.9,4.5-3.2l2.5,2.5c-4,4-9.5,6.2-15.1,6.4M44.5,26.9l.9-.9c.2.3.5.4.9.5.3,0,.5.2.5.5,0,.3.4.4.7.5s.5.4.8.4,1.1,1.1,1.4,1.5c.2.2.4.5.6.2s.2-.2.3-.2c1,2.1,1.5,4.4,1.6,6.8h-3.6c0-.8-.1-1.6-.3-2.4.1-.2.2-.5.2-.8,0-.1,0-.3-.2-.3,0,0-.2,0-.2,0-.1-.5-.3-.9-.5-1.4,0-.2-.1-.6-.2-.8,0,0-.1-.1-.2-.2,0-.2-.2-.4-.3-.6.2-.1.2-.4,0-.4-.4,0-.1-.2-.2-.3-.1-.1-.1,0-.2,0-.5-.8-1-1.5-1.6-2.1h0c-.1,0-.1-.1,0-.1M46.7,47.9c-.1-.2-.2-.6-.3-.8,0-.2-.6-.2-.6-.1,0,.2,0,.5,0,.7h0c0,0-1.3-1.2-1.3-1.2,2.4-2.5,3.7-5.9,3.9-9.3h3.6c-.1,4.4-1.9,8.6-4.9,11.8l-.2-.2c0-.3,0-.6-.1-.9M43.7,50.4c.2-.3.6-.9.8-1.2s-.5-.7-.9-.9-.4-.3-.4-.6c.2-.2.4-.3.6-.5l2.5,2.5c-.8.8-1.8,1.5-2.7,2.1,0-.1.4-.6.5-.8s-.5-.4-.4-.7M45.2,35.6c-.3-.4.1-.5.6-.7.2-.1.6,0,.6,0,0-.2.1-.3.2-.4.2,0,.3-.2.4-.3,0,.1,0,.2,0,.4-.1.2-.2.4-.2.7,0,.2,0,.4.2,0,0,0,0,0,0-.1,0,.4.1.8.1,1.2h-2.7c.2-.4.9-.3.7-.6M45.8,30.5s0,0,0,0h0c0,0-.4-.4-.4,0s.1.5.4.6.1.2.3.2c0,0,.2,0,.2.1.3.7.5,1.4.7,2.1,0,0-.2.1-.2.2-.1.1,0,.4-.2.6-.2.3-.2.5-.8.4-.3-.1,0-.5,0-.8s.2-.2.2-.4-.6-.9-.9-.6-.2.5-.5.8c-.1.1-.2.1-.4,0-.2-.1-.2-.2-.2-.4s-.4-.7-.6-.9c-.2-.3-.6-.5-1-.5-.3-.6-.7-1.1-1.2-1.6l2.5-2.5c.8.9,1.5,1.9,2.1,2.9M41.5,32.2v.2c-.2.1-.5-.1-.6,0s.4.7,0,.5-.2-.2-.2-.4-.4-.3-.2-.4c.2-.1,0-.3.2-.4s.2-.3-.1-.4c-.3,0-.2.7-.4.6-.2,0-.4,0-.6,0l.9-.9c0,0,.2,0,.3,0,.2.5.4.9.7,1.2M40.5,44.8c.4,0,.8.1,1.2.2.2.1.4.4.6,0,.4-.6.6-1.2.7-1.9.1-.9,0-1.2-.2-1.2s-.4.2-.6.2-.1.2-.1.4-.2.4-.3.2-.2,0-.1,0c0,.1-.5,0-.8,0-.4-.2.4-.2.8-.5.3-.3.6-.6.9-.9.2-.3.2-.7.5-.9s.8-.2.9-.6c0-.4.1-.3.3-.2s1.9,0,1.9-.6-.4-.6-.7-.6c-.2,0-.3-.5-.4-.7-.1-.3-.3-.5-.4-.8h2.6c-.1,3.2-1.4,6.2-3.5,8.6h0v-.3c0-.5-.3-1.3-.4-1.2-.1.1,0,.1-.4.7-.1.2-.3.5-.6.5s-.2-.1-.6,0c-.3,0-.7,0-1,0-.6-.2-1.2-.5-1.7-.8,0,0,.2,0,.2-.1s1,.4,1.2.4M50.2,52.3l-2.5-2.5c3.2-3.4,5.1-7.9,5.2-12.6h3.7c-.1,5.7-2.4,11.1-6.3,15.1M56.6,36.2h-3.7c0-2.7-.7-5.3-1.9-7.7h0c.2-.3-1.2-2.2-1.4-2.4-.3-.2-.6-.5-.8-.8-.5-.5-1-1-1.4-1.6l2.7-2.7c4,4.1,6.3,9.5,6.4,15.2M34.4,14.1c5.7.1,11.1,2.4,15.2,6.3l-2.5,2.5c-.1,0-.2-.1-.2-.2.1-.2-.2-.2-.2-.7-.1-.5-.5-.9-.9-1.2-.3-.2-.5-.4-.8-.6s-.9-.5-1.2-.4c-.2,0-.4.1-.6.1-2.6-1.4-5.6-2.2-8.6-2.2,0,0,0-3.6,0-3.6ZM34.4,18.7c2.7,0,5.3.7,7.7,1.9,0,.4.2.8.5,1.1.1.3.3.6.5.9.2.2,0,.6.1.9,0,.1.1.2.2.4v.5c0,0,.2,0,.4,0,.2-.1.3-.4.6-.3.2,0,.6.6.7.9l-1.2,1.2c-.1-.2-.2-.6-.2-.6s.2,0,.2,0c.2,0-.2-.2-.2-.2-.2-.2-.2-.4-.4-.6-.2-.2-.6,0-.8-.3-.2-.4-.6-.8-1-1.1,0,0,.5.7.3.8s-.9-.4-.9-.3c0,.1.8.4,1,.7.1.1.4.5.6.8-2.4-1.8-5.2-2.8-8.2-2.9v-3.6h0ZM34.4,23.3c3.2.1,6.2,1.4,8.6,3.5l-2.5,2.5c-1.7-1.5-3.8-2.4-6-2.5v-3.6h0ZM34.4,28c2,.1,3.8.9,5.3,2.2h-.1c0,.1-.1,0-.1,0-.3-.1-.9.5-.8.6.1,0,.4-.2.5-.2h0l-1.1,1.1c-.3.1-.6.4-.6.6h0c0,0-.4.4-.4.4l-.2-.2c-.3-.2-.6-.4-1-.6.2-.1.3-.3.3-.6,0-.4-.1-.2-.3,0-.2.2-.4.2-.5.4-.3-.1-.7-.2-1-.2v-3.6h0,0ZM34,32.5c0,.1,0,.2,0,.3h0c-.1.1-.5-.3-.6,0-.1.4.2.2.2.2.2.2.5.4.7.4.2,0,.6,0,.6.2s.3.1.4.2c0,.2.2.5.3.4.1,0,.3,0,.4.2,0,.1,0,.2,0,.3-.2.2.2.1.2.5s-.3.1-.4.4c-.1.2-.2.3-.4.5,0,0,0,.2.1.1,0,0,.2-.2.4-.2s.4.7.6.8c.2,0,.1.3.2.4,0,0-.3,0-.2.1s.4.2.4.4c0,.2-.2.4-.4.4-.2,0-.5-.4-.5-.3s.1.5.3.5.6-.2.4,0c-.2.2-.1.6-.2.6s-.2,0,0,.2c0,.2,0,.4-.1.6-.1,0-.3,0-.4,0,0,0,.4,0,.4-.2s-.2-.2-.6-.1c-.2,0-.2,0-.4,0s-.5.4-.5.5v.3c0,.2,0,.4-.2.6-.2,0-.5,0-.7,0-1,0-2-.4-2.7-1.1.1,0,.3-.1.5-.1.2,0,.2,0,.4-.1.1,0,.4.1.6,0s.6-.9.6-1.1c0-.2.4-.5.4-.6s-.1,0-.1,0,.1,0,0-.3-.3-.1-.4-.1c-.2-.1-.5-.2-.6-.1,0,0-.2-.1-.3,0,0,0-.2,0-.2.2,0,.1,0,.2,0,.4,0,.2-.4.4-.4.6s-.2,0-.2.1c0,0,0,.2-.1.2s-.3.3-.4.6c-.2-.2-.4-.6-.6-.8.1,0,.2-.1.3,0,.2.1.9-1.2.8-1.5s-.3-.1-.5,0c-.2,0-.2-.1-.1-.2,0,0,.9,0,.4-.3-.2-.1-.7-.1-.6-.3s.3,0,.4,0c.3.1.5-.5.7-.5.3,0,.2-.6-.1-.4s-.4.1-.6.3c-.1.2-.4.4-.4.2s.7-.5.8-.7c.1-.1.2-.3.3-.5,0-.2.9-.3,1.1-.4.1-.1.2-.3.2-.5,0-.2-.2-.1-.3-.2,0-.1.3,0,.3-.2s-.3,0-.4-.1c0,0,0,0,0-.1.4-.2.9-.2,1.4-.2h.1M33.4,14.1v3.6c-4.7.1-9.2,2-12.6,5.2l-2.5-2.5c4.1-3.9,9.5-6.2,15.1-6.3M17.5,21.1l2.5,2.5c-3.2,3.4-5.1,7.9-5.2,12.6h-3.6c.2-5.6,2.4-11,6.3-15.1"/>
  </g>
</svg>