<?xml version="1.0" encoding="UTF-8"?>
<svg id="Layer_2" data-name="Layer 2" xmlns="http://www.w3.org/2000/svg" xmlns:xlink="http://www.w3.org/1999/xlink" viewBox="0 0 1077.37 1077.37">
  <defs>
    <style>
      .cls-1 {
        fill: url(#Sfumatura_senza_nome_32);
      }

      .cls-2 {
        fill: url(#Sfumatura_senza_nome_32-2);
      }

      .cls-3 {
        clip-path: url(#clippath);
      }
    </style>
    <linearGradient id="Sfumatura_senza_nome_32" data-name="Sfumatura senza nome 32" x1="538.69" y1="1077.37" x2="538.69" y2="0" gradientUnits="userSpaceOnUse">
      <stop offset="0" stop-color="#1a1a1a"/>
      <stop offset=".5" stop-color="#8b7eb4"/>
      <stop offset="1" stop-color="#1a1a1a"/>
    </linearGradient>
    <clipPath id="clippath">
      <path class="cls-1" d="M594.9,833.47l15.52,117.9-.31.04-14.27,1.88-21.14,2.78-15.52-117.9,18.41-2.42,17.01-2.24.3-.04ZM394.55,932.05l.28.12,45.51-109.87-.28-.12-1.62-.67-31.39-13h0s-45.51,109.87-45.51,109.87l19.71,8.16,13.3,5.51ZM217.54,807.49l.19.24,94.34-72.39-21.93-28.59h0l-94.34,72.39,12.97,16.9,8.78,11.45ZM297.85,881.42l.24.19,72.39-94.34-8.45-6.48-.58-.44-19.56-15.01-72.39,94.34,16.89,12.96,11.45,8.79ZM666.5,809.91l-30.71,12.72,45.51,109.86,19.67-8.15,13.33-5.52.28-.12-45.51-109.87-2.58,1.07ZM297.15,363.04l.44-.58,15.01-19.56-94.34-72.39-12.95,16.87-8.8,11.47-.19.24,94.35,72.39,6.48-8.45ZM410.44,269.03l30.71-12.72-45.51-109.87-19.67,8.15-13.33,5.52-.28.12,45.51,109.87,2.58-1.07ZM371.18,291.14l-72.39-94.34-16.89,12.96-11.45,8.79-.24.19,72.39,94.34,28.59-21.93h0ZM159.11,715.3l.12.28,109.87-45.51-3.92-9.47-9.87-23.82-109.87,45.51,8.14,19.65,5.53,13.35ZM575.87,123.02l-.31-.04-15.52,117.9.3.04,34.03,4.48,1.39.18,15.52-117.9-21.14-2.78-14.28-1.88ZM682.38,146.89l-.28-.12-45.51,109.87.28.12,33,13.67,45.51-109.87-19.69-8.16-13.31-5.51ZM779.09,197.52l-.24-.19-72.39,94.35,8.45,6.48.58.44,19.56,15.01,72.39-94.34-16.9-12.97-11.44-8.78ZM859.39,271.45l-.19-.24-94.34,72.39.19.24,7.62,9.93,14.13,18.41,94.34-72.39-12.96-16.89-8.79-11.45ZM513.95,241.27l3.81-.5-15.52-117.9-21.11,2.78-14.3,1.88-.3.04,15.52,117.9,31.92-4.2ZM508.38,836.94l-4.77-.63-22.45-2.95-15.52,117.9,21.14,2.78,14.28,1.88.31.04,15.52-117.9-8.5-1.12ZM1075.95,517.11h-120.28v43.58h121.7v-43.58h-1.42ZM667.45,935.88l-42.1,11.28h0s31.29,116.8,31.29,116.8l.2.76,14.97-4.01h.03s27.09-7.27,27.09-7.27l-.37-1.37-31.13-116.19ZM420.52,12.66l-14.98,4.01h-.05s-27.07,7.27-27.07,7.27l.37,1.37,31.13,116.19,42.1-11.28-31.29-116.8-.2-.76ZM560.69.78v-.78h-43.58v121.7h43.58V.78ZM311.51,188.35l37.74-21.79-60.46-104.72-.39-.68-13.45,7.76h0l-24.29,14.03.71,1.23,60.14,104.17ZM228.58,259.09l30.82-30.82-85.5-85.5-.55-.55h0l-30.81,30.82,1,1,85.05,85.05ZM166.78,348.88l21.79-37.74-104.72-60.46-.68-.39-21.79,37.74,1.23.71,104.17,60.14ZM130.33,451.6l11.28-42.1-116.8-31.3-.76-.2-11.28,42.1,1.37.37,116.18,31.13ZM121.7,516.68H0v43.58h121.7v-43.58ZM130.21,625.35l-116.8,31.29-.76.2,4.01,14.97v.03s7.27,27.09,7.27,27.09l1.37-.37,116.19-31.13-11.28-42.09ZM166.56,728.12l-104.72,60.46-.68.39,21.79,37.74,1.23-.71,104.17-60.14-21.79-37.74ZM228.27,817.98l-85.5,85.5-.55.55,10.98,10.98,19.84,19.84,1-1,85.05-85.05-30.82-30.82ZM250.68,993.52l-.39.68h0s37.74,21.79,37.74,21.79l.71-1.23,60.14-104.17-37.74-21.79-60.46,104.72ZM378.21,1052.56l-.2.76,42.1,11.28.37-1.37,31.13-116.18-42.1-11.28-31.3,116.8ZM516.68,1076.59v.78h43.58v-121.7h-43.58v120.92ZM765.86,889.02l-37.74,21.79,60.46,104.72.39.68,13.45-7.76h0l24.29-14.03-.71-1.23-60.14-104.17ZM848.79,818.29l-30.82,30.81h0l85.5,85.5.55.55h0s30.81-30.81,30.81-30.81l-1-1-85.05-85.05ZM910.59,728.5l-21.79,37.74,104.72,60.46.68.39,21.79-37.74-1.23-.71-104.17-60.14ZM947.05,625.77l-11.28,42.1,116.8,31.3.76.2,11.28-42.1-1.37-.37-116.18-31.13ZM947.16,452.02l116.8-31.29.76-.2-4.01-14.97v-.03s-7.27-27.09-7.27-27.09l-1.37.37-116.19,31.13,11.28,42.1ZM910.81,349.25l104.72-60.46.68-.39-7.76-13.45h0s-14.03-24.3-14.03-24.3l-1.23.71-104.17,60.14,21.79,37.74ZM849.1,259.4l85.5-85.5.55-.55h0s-30.82-30.82-30.82-30.82l-1,1-85.05,85.05,30.82,30.82ZM826.7,83.85l.39-.68-37.74-21.79-.71,1.23-60.14,104.17,37.74,21.79,60.46-104.72ZM699.16,24.81l.2-.76-42.1-11.28-.37,1.37-31.13,116.18,42.1,11.28,31.3-116.8ZM151.4,382.24l-5.51,13.31-.12.28,109.87,45.51.12-.28,13.67-33-109.87-45.51-8.16,19.69ZM123.9,487.79l-1.88,14.28-.04.31,117.9,15.52.04-.3,4.48-34.03.18-1.39-117.9-15.52-2.78,21.14ZM124.65,596.84l1.88,14.28.04.31,117.9-15.52-4.7-35.72h0l-117.9,15.52,2.78,21.13ZM778.15,882.14l16.89-12.96,11.45-8.79.24-.19-72.39-94.34-.24.19-9.93,7.62-18.41,14.13,72.39,94.34ZM871.62,791.56l8.8-11.47.19-.24-94.35-72.39-6.62,8.63-15.31,19.95,94.34,72.39,12.95-16.87ZM925.54,696.68l5.51-13.3.12-.28-109.87-45.51-11.98,28.92-1.81,4.37,109.86,45.51,8.16-19.71ZM953.04,591.15l1.88-14.28.04-.31-117.9-15.52-.04.3-4.48,34.03-.18,1.39,117.9,15.52,2.78-21.14ZM952.29,482.09l-1.88-14.28-.04-.3-117.9,15.52,4.7,35.72h0l117.9-15.52-2.78-21.14ZM816.56,429.92l5.07,12.24,109.87-45.51-8.14-19.66-5.53-13.34-.12-.29-109.87,45.51.12.29,8.6,20.77Z"/>
    </clipPath>
    <linearGradient id="Sfumatura_senza_nome_32-2" data-name="Sfumatura senza nome 32" x1="536.15" y1="1077.93" x2="536.15" y2="-.56" xlink:href="#Sfumatura_senza_nome_32"/>
  </defs>
  <g id="testi">
    <g>
      <path class="cls-1" d="M594.9,833.47l15.52,117.9-.31.04-14.27,1.88-21.14,2.78-15.52-117.9,18.41-2.42,17.01-2.24.3-.04ZM394.55,932.05l.28.12,45.51-109.87-.28-.12-1.62-.67-31.39-13h0s-45.51,109.87-45.51,109.87l19.71,8.16,13.3,5.51ZM217.54,807.49l.19.24,94.34-72.39-21.93-28.59h0l-94.34,72.39,12.97,16.9,8.78,11.45ZM297.85,881.42l.24.19,72.39-94.34-8.45-6.48-.58-.44-19.56-15.01-72.39,94.34,16.89,12.96,11.45,8.79ZM666.5,809.91l-30.71,12.72,45.51,109.86,19.67-8.15,13.33-5.52.28-.12-45.51-109.87-2.58,1.07ZM297.15,363.04l.44-.58,15.01-19.56-94.34-72.39-12.95,16.87-8.8,11.47-.19.24,94.35,72.39,6.48-8.45ZM410.44,269.03l30.71-12.72-45.51-109.87-19.67,8.15-13.33,5.52-.28.12,45.51,109.87,2.58-1.07ZM371.18,291.14l-72.39-94.34-16.89,12.96-11.45,8.79-.24.19,72.39,94.34,28.59-21.93h0ZM159.11,715.3l.12.28,109.87-45.51-3.92-9.47-9.87-23.82-109.87,45.51,8.14,19.65,5.53,13.35ZM575.87,123.02l-.31-.04-15.52,117.9.3.04,34.03,4.48,1.39.18,15.52-117.9-21.14-2.78-14.28-1.88ZM682.38,146.89l-.28-.12-45.51,109.87.28.12,33,13.67,45.51-109.87-19.69-8.16-13.31-5.51ZM779.09,197.52l-.24-.19-72.39,94.35,8.45,6.48.58.44,19.56,15.01,72.39-94.34-16.9-12.97-11.44-8.78ZM859.39,271.45l-.19-.24-94.34,72.39.19.24,7.62,9.93,14.13,18.41,94.34-72.39-12.96-16.89-8.79-11.45ZM513.95,241.27l3.81-.5-15.52-117.9-21.11,2.78-14.3,1.88-.3.04,15.52,117.9,31.92-4.2ZM508.38,836.94l-4.77-.63-22.45-2.95-15.52,117.9,21.14,2.78,14.28,1.88.31.04,15.52-117.9-8.5-1.12ZM1075.95,517.11h-120.28v43.58h121.7v-43.58h-1.42ZM667.45,935.88l-42.1,11.28h0s31.29,116.8,31.29,116.8l.2.76,14.97-4.01h.03s27.09-7.27,27.09-7.27l-.37-1.37-31.13-116.19ZM420.52,12.66l-14.98,4.01h-.05s-27.07,7.27-27.07,7.27l.37,1.37,31.13,116.19,42.1-11.28-31.29-116.8-.2-.76ZM560.69.78v-.78h-43.58v121.7h43.58V.78ZM311.51,188.35l37.74-21.79-60.46-104.72-.39-.68-13.45,7.76h0l-24.29,14.03.71,1.23,60.14,104.17ZM228.58,259.09l30.82-30.82-85.5-85.5-.55-.55h0l-30.81,30.82,1,1,85.05,85.05ZM166.78,348.88l21.79-37.74-104.72-60.46-.68-.39-21.79,37.74,1.23.71,104.17,60.14ZM130.33,451.6l11.28-42.1-116.8-31.3-.76-.2-11.28,42.1,1.37.37,116.18,31.13ZM121.7,516.68H0v43.58h121.7v-43.58ZM130.21,625.35l-116.8,31.29-.76.2,4.01,14.97v.03s7.27,27.09,7.27,27.09l1.37-.37,116.19-31.13-11.28-42.09ZM166.56,728.12l-104.72,60.46-.68.39,21.79,37.74,1.23-.71,104.17-60.14-21.79-37.74ZM228.27,817.98l-85.5,85.5-.55.55,10.98,10.98,19.84,19.84,1-1,85.05-85.05-30.82-30.82ZM250.68,993.52l-.39.68h0s37.74,21.79,37.74,21.79l.71-1.23,60.14-104.17-37.74-21.79-60.46,104.72ZM378.21,1052.56l-.2.76,42.1,11.28.37-1.37,31.13-116.18-42.1-11.28-31.3,116.8ZM516.68,1076.59v.78h43.58v-121.7h-43.58v120.92ZM765.86,889.02l-37.74,21.79,60.46,104.72.39.68,13.45-7.76h0l24.29-14.03-.71-1.23-60.14-104.17ZM848.79,818.29l-30.82,30.81h0l85.5,85.5.55.55h0s30.81-30.81,30.81-30.81l-1-1-85.05-85.05ZM910.59,728.5l-21.79,37.74,104.72,60.46.68.39,21.79-37.74-1.23-.71-104.17-60.14ZM947.05,625.77l-11.28,42.1,116.8,31.3.76.2,11.28-42.1-1.37-.37-116.18-31.13ZM947.16,452.02l116.8-31.29.76-.2-4.01-14.97v-.03s-7.27-27.09-7.27-27.09l-1.37.37-116.19,31.13,11.28,42.1ZM910.81,349.25l104.72-60.46.68-.39-7.76-13.45h0s-14.03-24.3-14.03-24.3l-1.23.71-104.17,60.14,21.79,37.74ZM849.1,259.4l85.5-85.5.55-.55h0s-30.82-30.82-30.82-30.82l-1,1-85.05,85.05,30.82,30.82ZM826.7,83.85l.39-.68-37.74-21.79-.71,1.23-60.14,104.17,37.74,21.79,60.46-104.72ZM699.16,24.81l.2-.76-42.1-11.28-.37,1.37-31.13,116.18,42.1,11.28,31.3-116.8ZM151.4,382.24l-5.51,13.31-.12.28,109.87,45.51.12-.28,13.67-33-109.87-45.51-8.16,19.69ZM123.9,487.79l-1.88,14.28-.04.31,117.9,15.52.04-.3,4.48-34.03.18-1.39-117.9-15.52-2.78,21.14ZM124.65,596.84l1.88,14.28.04.31,117.9-15.52-4.7-35.72h0l-117.9,15.52,2.78,21.13ZM778.15,882.14l16.89-12.96,11.45-8.79.24-.19-72.39-94.34-.24.19-9.93,7.62-18.41,14.13,72.39,94.34ZM871.62,791.56l8.8-11.47.19-.24-94.35-72.39-6.62,8.63-15.31,19.95,94.34,72.39,12.95-16.87ZM925.54,696.68l5.51-13.3.12-.28-109.87-45.51-11.98,28.92-1.81,4.37,109.86,45.51,8.16-19.71ZM953.04,591.15l1.88-14.28.04-.31-117.9-15.52-.04.3-4.48,34.03-.18,1.39,117.9,15.52,2.78-21.14ZM952.29,482.09l-1.88-14.28-.04-.3-117.9,15.52,4.7,35.72h0l117.9-15.52-2.78-21.14ZM816.56,429.92l5.07,12.24,109.87-45.51-8.14-19.66-5.53-13.34-.12-.29-109.87,45.51.12.29,8.6,20.77Z"/>
      <g class="cls-3">
        <rect class="cls-2" x="-3.1" y="-.56" width="1078.49" height="1078.49"/>
      </g>
    </g>
  </g>
</svg>