<svg width="112" height="112" viewBox="0 0 112 112" fill="none" xmlns="http://www.w3.org/2000/svg">
<path d="M57.3215 0.732233C56.3452 -0.244078 54.7623 -0.244078 53.7859 0.732233L37.876 16.6421C36.8997 17.6184 36.8997 19.2014 37.876 20.1777C38.8524 21.154 40.4353 21.154 41.4116 20.1777L55.5537 6.03553L69.6958 20.1777C70.6722 21.154 72.2551 21.154 73.2314 20.1777C74.2077 19.2014 74.2077 17.6184 73.2314 16.6421L57.3215 0.732233ZM53.7859 110.375C54.7623 111.352 56.3452 111.352 57.3215 110.375L73.2314 94.4653C74.2077 93.489 74.2077 91.9061 73.2314 90.9298C72.2551 89.9535 70.6722 89.9535 69.6958 90.9298L55.5537 105.072L41.4116 90.9298C40.4353 89.9535 38.8524 89.9535 37.876 90.9298C36.8997 91.9061 36.8997 93.489 37.876 94.4653L53.7859 110.375ZM55.5537 2.5H53.0537L53.0537 108.607H55.5537H58.0537L58.0537 2.5H55.5537Z" fill="#867DB0"/>
<path d="M110.375 57.3215C111.351 56.3452 111.351 54.7623 110.375 53.7859L94.4653 37.876C93.489 36.8997 91.9061 36.8997 90.9298 37.876C89.9534 38.8524 89.9534 40.4353 90.9298 41.4116L105.072 55.5537L90.9298 69.6958C89.9534 70.6722 89.9534 72.2551 90.9298 73.2314C91.9061 74.2077 93.489 74.2077 94.4653 73.2314L110.375 57.3215ZM0.732201 53.7859C-0.24411 54.7622 -0.24411 56.3452 0.7322 57.3215L16.6421 73.2314C17.6184 74.2077 19.2013 74.2077 20.1776 73.2314C21.154 72.2551 21.154 70.6721 20.1776 69.6958L6.03551 55.5537L20.1776 41.4116C21.154 40.4353 21.154 38.8523 20.1776 37.876C19.2013 36.8997 17.6184 36.8997 16.6421 37.876L0.732201 53.7859ZM108.607 55.5537L108.607 53.0537L2.49997 53.0537L2.49997 55.5537L2.49997 58.0537L108.607 58.0537L108.607 55.5537Z" fill="#867DB0"/>
</svg>
